<?xml version="1.0" encoding="UTF-8"?>
<svg width="766px" height="280px" viewBox="0 0 766 280" version="1.1" xmlns="http://www.w3.org/2000/svg" xmlns:xlink="http://www.w3.org/1999/xlink">
    <!-- Generator: Sketch 63.1 (92452) - https://sketch.com -->
    <title>背景</title>
    <desc>Created with Sketch.</desc>
    <g id="页面-1" stroke="none" stroke-width="1" fill="none" fill-rule="evenodd">
        <g id="首页-移动端" transform="translate(7.000000, -4141.000000)">
            <g id="数字化转型方案效益" transform="translate(-1.000000, 3945.000000)">
                <g id="背景">
                    <g transform="translate(0.000000, 196.000000)">
                        <g id="形状结合">
                            <path d="M147.624131,145.685515 L162.444058,155.563929 L297.072791,163.655506 L297.050571,164.068632 L296.872058,164.056929 L247.909058,212.537929 L301.907679,248.535835 L301.70359,248.888943 L247.613058,212.830929 L229.599058,230.668929 L298.468372,253.435739 L298.347157,253.829194 L229.270058,230.993929 L193.809058,266.105929 L206.376764,278.807402 L206.106244,279.106495 L193.523058,266.388929 L189.933877,269.9441 L189.666257,269.642106 L193.240058,266.102929 L127.226494,199.390926 L127.497014,199.091833 L193.526058,265.819929 L228.841058,230.851929 L129.80982,198.115075 L129.931035,197.721619 L229.170058,230.526929 L247.271058,212.602929 L162.320058,155.971929 L76.9610583,150.841929 L91.1488626,242.221586 L90.7625679,242.288603 L76.5348973,150.654198 L76.7280583,150.620929 L76.7391547,150.414127 L161.637058,155.515929 L147.420043,146.038623 L147.624131,145.685515 Z M522.113772,256.497956 L522.190163,256.903794 L459.940305,269.996022 L459.863914,269.590185 L522.113772,256.497956 Z M681.418643,213.145339 L752.0587,269.628097 L751.822538,269.95811 L681.182482,213.475351 L681.418643,213.145339 Z M37.5400384,245.42807 L37.8935161,245.605881 L27.1282896,269.517592 L26.7748119,269.339781 L37.5400384,245.42807 Z M48.6518027,240.103982 L63.217031,266.955122 L62.8774329,267.160951 L48.3122046,240.309811 L48.6518027,240.103982 Z M677.173939,216.793272 L677.55998,216.861901 L677.198058,219.129929 L677.335229,219.106185 L677.39869,219.514505 L677.129058,219.560929 L670.317919,262.379142 L669.931877,262.310513 L676.721058,219.631929 L526.489789,245.721135 L526.426327,245.312816 L676.790058,219.200929 L677.173939,216.793272 Z M30.545011,242.061541 L30.6833177,242.448648 L-3.52744539,256.105836 L-3.66575214,255.718729 L30.545011,242.061541 Z M431.69791,234.001855 L431.75022,234.411938 L314.168069,251.170558 L314.115759,250.760476 L431.69791,234.001855 Z M433.322751,234.002932 L526.490893,250.761553 L526.425223,251.169482 L433.257081,234.410861 L433.322751,234.002932 Z M300.254768,160.735304 L309.501724,248.289115 L309.112755,248.335748 L299.865799,160.781937 L300.254768,160.735304 Z M424.117422,148.197619 L468.440058,194.466929 L516.935461,150.463702 L517.190441,150.777678 L468.720058,194.758929 L517.200487,245.369767 L516.925415,245.664184 L468.421058,195.029929 L430.089973,229.81216 L429.834992,229.498184 L468.142058,194.737929 L423.842349,148.492036 L424.117422,148.197619 Z M549.37138,169.167929 L549.737344,169.31483 L522.334949,245.590426 L521.968985,245.443525 L549.37138,169.167929 Z M127.220293,202.201835 L127.503214,202.487821 L93.250221,240.34989 L92.9673001,240.063904 L127.220293,202.201835 Z M-5.55594686,183.602016 L33.5168615,240.084774 L33.2008667,240.329019 L-5.8719417,183.84626 L-5.55594686,183.602016 Z M74.3338595,153.850812 L74.6946976,154.011257 L42.7490771,234.287119 L42.388239,234.126674 L74.3338595,153.850812 Z M163.127058,156.019929 L247.567058,212.309929 L296.332058,164.024929 L163.127058,156.019929 Z M549.594901,182.280348 L681.341102,211.763107 L681.260023,212.167927 L549.513822,182.685169 L549.594901,182.280348 Z M169.05254,201.103448 C169.701137,201.103448 170.226928,201.659233 170.226928,202.344828 C170.226928,203.030422 169.701137,203.586207 169.05254,203.586207 C168.403943,203.586207 167.878151,203.030422 167.878151,202.344828 C167.878151,201.659233 168.403943,201.103448 169.05254,201.103448 Z M169.05254,182.482759 C169.701137,182.482759 170.226928,183.038543 170.226928,183.724138 C170.226928,184.409733 169.701137,184.965517 169.05254,184.965517 C168.403943,184.965517 167.878151,184.409733 167.878151,183.724138 C167.878151,183.038543 168.403943,182.482759 169.05254,182.482759 Z M491.226408,182.482759 C491.875004,182.482759 492.400796,183.038543 492.400796,183.724138 C492.400796,184.409733 491.875004,184.965517 491.226408,184.965517 C490.577811,184.965517 490.052019,184.409733 490.052019,183.724138 C490.052019,183.038543 490.577811,182.482759 491.226408,182.482759 Z M330.335205,182.482759 C330.983802,182.482759 331.509593,183.038543 331.509593,183.724138 C331.509593,184.409733 330.983802,184.965517 330.335205,184.965517 C329.686608,184.965517 329.160817,184.409733 329.160817,183.724138 C329.160817,183.038543 329.686608,182.482759 330.335205,182.482759 Z M491.226408,163.862069 C491.875004,163.862069 492.400796,164.417853 492.400796,165.103448 C492.400796,165.789043 491.875004,166.344828 491.226408,166.344828 C490.577811,166.344828 490.052019,165.789043 490.052019,165.103448 C490.052019,164.417853 490.577811,163.862069 491.226408,163.862069 Z M330.335205,163.862069 C330.983802,163.862069 331.509593,164.417853 331.509593,165.103448 C331.509593,165.789043 330.983802,166.344828 330.335205,166.344828 C329.686608,166.344828 329.160817,165.789043 329.160817,165.103448 C329.160817,164.417853 329.686608,163.862069 330.335205,163.862069 Z M169.05254,163.862069 C169.701137,163.862069 170.226928,164.417853 170.226928,165.103448 C170.226928,165.789043 169.701137,166.344828 169.05254,166.344828 C168.403943,166.344828 167.878151,165.789043 167.878151,165.103448 C167.878151,164.417853 168.403943,163.862069 169.05254,163.862069 Z M358.186636,96.6810295 L358.462952,96.9741429 L301.106702,157.387936 L300.830386,157.094823 L358.186636,96.6810295 Z M519.993282,145.448362 L520.004562,145.861983 L431.729705,148.551638 L431.718425,148.138017 L519.993282,145.448362 Z M0.392894125,96.6309289 L141.710958,145.458515 L141.589333,145.85183 L0.271269337,97.0242435 L0.392894125,96.6309289 Z" fill="#F2F2F2"></path>
                            <ellipse id="椭圆形" fill="#F2F2F2" cx="127.361754" cy="199.241379" rx="4.89328475" ry="5.17241379"></ellipse>
                            <ellipse id="椭圆形备份-11" fill="#F2F2F2" cx="90.9557153" cy="240.206897" rx="7.24206143" ry="7.65517241"></ellipse>
                            <ellipse id="椭圆形备份-17" fill="#F2F2F2" cx="37.7167772" cy="237.724138" rx="10.7652264" ry="11.3793103"></ellipse>
                            <ellipse id="椭圆形备份-19" fill="#F2F2F2" cx="74.5142785" cy="148.344828" rx="8.41644977" ry="8.89655172"></ellipse>
                            <ellipse id="椭圆形备份-18" fill="#F2F2F2" cx="152.415372" cy="145.862069" rx="10.7652264" ry="11.3793103"></ellipse>
                            <ellipse id="椭圆形备份-12" fill="#F2F2F2" cx="299.213914" cy="160.758621" rx="4.89328475" ry="5.17241379"></ellipse>
                            <ellipse id="椭圆形备份-13" fill="#F2F2F2" cx="308.87666" cy="244.896552" rx="14.0926601" ry="14.8965517"></ellipse>
                            <ellipse id="椭圆形备份-15" fill="#F2F2F2" cx="519.998922" cy="250.965517" rx="10.7652264" ry="11.3793103"></ellipse>
                            <ellipse id="椭圆形备份-16" fill="#F2F2F2" cx="677.366959" cy="213.310345" rx="7.24206143" ry="7.65517241"></ellipse>
                            <ellipse id="椭圆形备份-20" fill="#F2F2F2" cx="718.079088" cy="144.206897" rx="6.06767309" ry="6.4137931"></ellipse>
                            <ellipse id="椭圆形备份-14" fill="#F2F2F2" cx="433.289916" cy="229.655172" rx="9.7865695" ry="10.3448276"></ellipse>
                            <polygon id="路径-31" fill="#F2F2F2" fill-rule="nonzero" points="70.9291543 148.148571 71.0530727 148.541084 -3.60379291 174.876267 -3.72771137 174.483754"></polygon>
                            <polygon id="路径-32" fill="#F2F2F2" fill-rule="nonzero" points="76.8484123 150.260858 127.634692 198.938564 127.371736 199.245102 76.5854567 150.567396"></polygon>
                            <polygon id="路径-33" fill="#F2F2F2" fill-rule="nonzero" points="718.054993 139.242953 718.103184 139.653599 581.286942 157.593259 581.238752 157.182613"></polygon>
                            <polygon id="路径-34" fill="#F2F2F2" fill-rule="nonzero" points="720.357011 146.888534 720.686805 147.111466 681.505998 211.874573 681.176205 211.651641"></polygon>
                            <line x1="721.350297" y1="142.909718" x2="758.749846" y2="169.241379" id="路径-35" stroke="#F2F2F2"></line>
                        </g>
                    </g>
                </g>
            </g>
        </g>
    </g>
</svg>