<?xml version="1.0" encoding="UTF-8"?>
<svg width="750px" height="675px" viewBox="0 0 750 675" version="1.1" xmlns="http://www.w3.org/2000/svg" xmlns:xlink="http://www.w3.org/1999/xlink">
    <!-- Generator: Sketch 63.1 (92452) - https://sketch.com -->
    <title>供应链数字化管理</title>
    <desc>Created with Sketch.</desc>
    <defs>
        <linearGradient x1="9.69721097%" y1="28.3587258%" x2="94.3197287%" y2="57.0125437%" id="linearGradient-1">
            <stop stop-color="#EDF6FF" offset="0%"></stop>
            <stop stop-color="#FDFEFF" offset="100%"></stop>
        </linearGradient>
        <linearGradient x1="50%" y1="0%" x2="50%" y2="100%" id="linearGradient-2">
            <stop stop-color="#EDF6FF" offset="0%"></stop>
            <stop stop-color="#FFFFFF" offset="100%"></stop>
        </linearGradient>
        <linearGradient x1="50%" y1="0%" x2="50%" y2="100%" id="linearGradient-3">
            <stop stop-color="#58B1FD" offset="0%"></stop>
            <stop stop-color="#2D7BFA" offset="100%"></stop>
        </linearGradient>
        <linearGradient x1="50%" y1="0%" x2="50%" y2="100%" id="linearGradient-4">
            <stop stop-color="#59B2FD" offset="0%"></stop>
            <stop stop-color="#2D7BFA" offset="100%"></stop>
        </linearGradient>
        <filter x="-101.5%" y="-103.6%" width="302.9%" height="298.9%" filterUnits="objectBoundingBox" id="filter-5">
            <feGaussianBlur stdDeviation="73.1808" in="SourceGraphic"></feGaussianBlur>
        </filter>
    </defs>
    <g id="页面-1" stroke="none" stroke-width="1" fill="none" fill-rule="evenodd">
        <g id="首页-移动端" transform="translate(0.000000, -1907.000000)">
            <g id="提供高质量供应链解决方案与落地服务" transform="translate(-90.000000, 1774.000000)">
                <g id="供应链数字化管理" transform="translate(0.000000, 131.000000)">
                    <g id="背景" transform="translate(0.000000, 57.000000)">
                        <path d="M868.049195,473.456843 C887.380021,487.425699 941.573973,486.930754 967.729328,473.456843 C987.910995,463.059427 992.649361,452.09229 999.769371,455.653049 C1011.73455,461.638684 978.295422,518.283235 928.569276,533.989742 C860.929185,555.354294 807.564714,513.907062 803.969109,469.896084 C801.445066,438.995819 811.089119,405.802426 828.889142,409.363185 C850.124571,413.61117 835.222391,449.735068 868.049195,473.456843 Z" id="Fill-1" fill="url(#linearGradient-1)"></path>
                        <path d="M127.107699,398.321163 C126.613584,406.987031 119.558197,413.903563 110.892185,414.345651 C102.93884,414.754463 92.676458,416.960148 85.0984493,424.542188 C70.8451415,438.803079 82.5566095,464.776915 99.3517572,481.585751 C118.356168,500.600273 127.858373,510.107533 118.356168,514.861164 C108.853962,519.614794 66.0940389,505.353903 37.5874233,462.57123 C9.08080765,419.788558 32.8363207,372.252255 61.3429363,362.744994 C86.1864518,354.459417 129.060402,364.223373 127.107699,398.321163" id="Fill-1" fill="url(#linearGradient-2)" transform="translate(75.945600, 437.849440) rotate(-21.000000) translate(-75.945600, -437.849440) "></path>
                        <path d="M230.148,132.05824 C232.168832,132.05824 233.80704,133.696448 233.80704,135.71728 C233.80704,137.738112 232.168832,139.37632 230.148,139.37632 C228.127168,139.37632 226.48896,137.738112 226.48896,135.71728 C226.48896,133.696448 228.127168,132.05824 230.148,132.05824 Z M247.92048,132.05824 C249.941312,132.05824 251.57952,133.696448 251.57952,135.71728 C251.57952,137.738112 249.941312,139.37632 247.92048,139.37632 C245.899648,139.37632 244.26144,137.738112 244.26144,135.71728 C244.26144,133.696448 245.899648,132.05824 247.92048,132.05824 Z M265.69296,132.05824 C267.713792,132.05824 269.352,133.696448 269.352,135.71728 C269.352,137.738112 267.713792,139.37632 265.69296,139.37632 C263.672128,139.37632 262.03392,137.738112 262.03392,135.71728 C262.03392,133.696448 263.672128,132.05824 265.69296,132.05824 Z M283.46544,132.05824 C285.486272,132.05824 287.12448,133.696448 287.12448,135.71728 C287.12448,137.738112 285.486272,139.37632 283.46544,139.37632 C281.444608,139.37632 279.8064,137.738112 279.8064,135.71728 C279.8064,133.696448 281.444608,132.05824 283.46544,132.05824 Z M301.23792,132.05824 C303.258752,132.05824 304.89696,133.696448 304.89696,135.71728 C304.89696,137.738112 303.258752,139.37632 301.23792,139.37632 C299.217088,139.37632 297.57888,137.738112 297.57888,135.71728 C297.57888,133.696448 299.217088,132.05824 301.23792,132.05824 Z M319.0104,132.05824 C321.031232,132.05824 322.66944,133.696448 322.66944,135.71728 C322.66944,137.738112 321.031232,139.37632 319.0104,139.37632 C316.989568,139.37632 315.35136,137.738112 315.35136,135.71728 C315.35136,133.696448 316.989568,132.05824 319.0104,132.05824 Z M336.78288,132.05824 C338.803712,132.05824 340.44192,133.696448 340.44192,135.71728 C340.44192,137.738112 338.803712,139.37632 336.78288,139.37632 C334.762048,139.37632 333.12384,137.738112 333.12384,135.71728 C333.12384,133.696448 334.762048,132.05824 336.78288,132.05824 Z M354.55536,132.05824 C356.576192,132.05824 358.2144,133.696448 358.2144,135.71728 C358.2144,137.738112 356.576192,139.37632 354.55536,139.37632 C352.534528,139.37632 350.89632,137.738112 350.89632,135.71728 C350.89632,133.696448 352.534528,132.05824 354.55536,132.05824 Z M372.32784,132.05824 C374.348672,132.05824 375.98688,133.696448 375.98688,135.71728 C375.98688,137.738112 374.348672,139.37632 372.32784,139.37632 C370.307008,139.37632 368.6688,137.738112 368.6688,135.71728 C368.6688,133.696448 370.307008,132.05824 372.32784,132.05824 Z M390.10032,132.05824 C392.121152,132.05824 393.75936,133.696448 393.75936,135.71728 C393.75936,137.738112 392.121152,139.37632 390.10032,139.37632 C388.079488,139.37632 386.44128,137.738112 386.44128,135.71728 C386.44128,133.696448 388.079488,132.05824 390.10032,132.05824 Z M283.46544,113.24032 C285.486272,113.24032 287.12448,114.878528 287.12448,116.89936 C287.12448,118.920192 285.486272,120.5584 283.46544,120.5584 C281.444608,120.5584 279.8064,118.920192 279.8064,116.89936 C279.8064,114.878528 281.444608,113.24032 283.46544,113.24032 Z M301.23792,113.24032 C303.258752,113.24032 304.89696,114.878528 304.89696,116.89936 C304.89696,118.920192 303.258752,120.5584 301.23792,120.5584 C299.217088,120.5584 297.57888,118.920192 297.57888,116.89936 C297.57888,114.878528 299.217088,113.24032 301.23792,113.24032 Z M319.0104,113.24032 C321.031232,113.24032 322.66944,114.878528 322.66944,116.89936 C322.66944,118.920192 321.031232,120.5584 319.0104,120.5584 C316.989568,120.5584 315.35136,118.920192 315.35136,116.89936 C315.35136,114.878528 316.989568,113.24032 319.0104,113.24032 Z M336.78288,113.24032 C338.803712,113.24032 340.44192,114.878528 340.44192,116.89936 C340.44192,118.920192 338.803712,120.5584 336.78288,120.5584 C334.762048,120.5584 333.12384,118.920192 333.12384,116.89936 C333.12384,114.878528 334.762048,113.24032 336.78288,113.24032 Z M230.148,113.24032 C232.168832,113.24032 233.80704,114.878528 233.80704,116.89936 C233.80704,118.920192 232.168832,120.5584 230.148,120.5584 C228.127168,120.5584 226.48896,118.920192 226.48896,116.89936 C226.48896,114.878528 228.127168,113.24032 230.148,113.24032 Z M354.55536,113.24032 C356.576192,113.24032 358.2144,114.878528 358.2144,116.89936 C358.2144,118.920192 356.576192,120.5584 354.55536,120.5584 C352.534528,120.5584 350.89632,118.920192 350.89632,116.89936 C350.89632,114.878528 352.534528,113.24032 354.55536,113.24032 Z M247.92048,113.24032 C249.941312,113.24032 251.57952,114.878528 251.57952,116.89936 C251.57952,118.920192 249.941312,120.5584 247.92048,120.5584 C245.899648,120.5584 244.26144,118.920192 244.26144,116.89936 C244.26144,114.878528 245.899648,113.24032 247.92048,113.24032 Z M372.32784,113.24032 C374.348672,113.24032 375.98688,114.878528 375.98688,116.89936 C375.98688,118.920192 374.348672,120.5584 372.32784,120.5584 C370.307008,120.5584 368.6688,118.920192 368.6688,116.89936 C368.6688,114.878528 370.307008,113.24032 372.32784,113.24032 Z M265.69296,113.24032 C267.713792,113.24032 269.352,114.878528 269.352,116.89936 C269.352,118.920192 267.713792,120.5584 265.69296,120.5584 C263.672128,120.5584 262.03392,118.920192 262.03392,116.89936 C262.03392,114.878528 263.672128,113.24032 265.69296,113.24032 Z M390.10032,113.24032 C392.121152,113.24032 393.75936,114.878528 393.75936,116.89936 C393.75936,118.920192 392.121152,120.5584 390.10032,120.5584 C388.079488,120.5584 386.44128,118.920192 386.44128,116.89936 C386.44128,114.878528 388.079488,113.24032 390.10032,113.24032 Z M230.148,94.4224 C232.168832,94.4224 233.80704,96.060608 233.80704,98.08144 C233.80704,100.102272 232.168832,101.74048 230.148,101.74048 C228.127168,101.74048 226.48896,100.102272 226.48896,98.08144 C226.48896,96.060608 228.127168,94.4224 230.148,94.4224 Z M247.92048,94.4224 C249.941312,94.4224 251.57952,96.060608 251.57952,98.08144 C251.57952,100.102272 249.941312,101.74048 247.92048,101.74048 C245.899648,101.74048 244.26144,100.102272 244.26144,98.08144 C244.26144,96.060608 245.899648,94.4224 247.92048,94.4224 Z M319.0104,94.4224 C321.031232,94.4224 322.66944,96.060608 322.66944,98.08144 C322.66944,100.102272 321.031232,101.74048 319.0104,101.74048 C316.989568,101.74048 315.35136,100.102272 315.35136,98.08144 C315.35136,96.060608 316.989568,94.4224 319.0104,94.4224 Z M336.78288,94.4224 C338.803712,94.4224 340.44192,96.060608 340.44192,98.08144 C340.44192,100.102272 338.803712,101.74048 336.78288,101.74048 C334.762048,101.74048 333.12384,100.102272 333.12384,98.08144 C333.12384,96.060608 334.762048,94.4224 336.78288,94.4224 Z M354.55536,94.4224 C356.576192,94.4224 358.2144,96.060608 358.2144,98.08144 C358.2144,100.102272 356.576192,101.74048 354.55536,101.74048 C352.534528,101.74048 350.89632,100.102272 350.89632,98.08144 C350.89632,96.060608 352.534528,94.4224 354.55536,94.4224 Z M265.69296,94.4224 C267.713792,94.4224 269.352,96.060608 269.352,98.08144 C269.352,100.102272 267.713792,101.74048 265.69296,101.74048 C263.672128,101.74048 262.03392,100.102272 262.03392,98.08144 C262.03392,96.060608 263.672128,94.4224 265.69296,94.4224 Z M372.32784,94.4224 C374.348672,94.4224 375.98688,96.060608 375.98688,98.08144 C375.98688,100.102272 374.348672,101.74048 372.32784,101.74048 C370.307008,101.74048 368.6688,100.102272 368.6688,98.08144 C368.6688,96.060608 370.307008,94.4224 372.32784,94.4224 Z M283.46544,94.4224 C285.486272,94.4224 287.12448,96.060608 287.12448,98.08144 C287.12448,100.102272 285.486272,101.74048 283.46544,101.74048 C281.444608,101.74048 279.8064,100.102272 279.8064,98.08144 C279.8064,96.060608 281.444608,94.4224 283.46544,94.4224 Z M390.10032,94.4224 C392.121152,94.4224 393.75936,96.060608 393.75936,98.08144 C393.75936,100.102272 392.121152,101.74048 390.10032,101.74048 C388.079488,101.74048 386.44128,100.102272 386.44128,98.08144 C386.44128,96.060608 388.079488,94.4224 390.10032,94.4224 Z M301.23792,94.4224 C303.258752,94.4224 304.89696,96.060608 304.89696,98.08144 C304.89696,100.102272 303.258752,101.74048 301.23792,101.74048 C299.217088,101.74048 297.57888,100.102272 297.57888,98.08144 C297.57888,96.060608 299.217088,94.4224 301.23792,94.4224 Z M230.148,75.60448 C232.168832,75.60448 233.80704,77.242688 233.80704,79.26352 C233.80704,81.284352 232.168832,82.92256 230.148,82.92256 C228.127168,82.92256 226.48896,81.284352 226.48896,79.26352 C226.48896,77.242688 228.127168,75.60448 230.148,75.60448 Z M247.92048,75.60448 C249.941312,75.60448 251.57952,77.242688 251.57952,79.26352 C251.57952,81.284352 249.941312,82.92256 247.92048,82.92256 C245.899648,82.92256 244.26144,81.284352 244.26144,79.26352 C244.26144,77.242688 245.899648,75.60448 247.92048,75.60448 Z M265.69296,75.60448 C267.713792,75.60448 269.352,77.242688 269.352,79.26352 C269.352,81.284352 267.713792,82.92256 265.69296,82.92256 C263.672128,82.92256 262.03392,81.284352 262.03392,79.26352 C262.03392,77.242688 263.672128,75.60448 265.69296,75.60448 Z M283.46544,75.60448 C285.486272,75.60448 287.12448,77.242688 287.12448,79.26352 C287.12448,81.284352 285.486272,82.92256 283.46544,82.92256 C281.444608,82.92256 279.8064,81.284352 279.8064,79.26352 C279.8064,77.242688 281.444608,75.60448 283.46544,75.60448 Z M301.23792,75.60448 C303.258752,75.60448 304.89696,77.242688 304.89696,79.26352 C304.89696,81.284352 303.258752,82.92256 301.23792,82.92256 C299.217088,82.92256 297.57888,81.284352 297.57888,79.26352 C297.57888,77.242688 299.217088,75.60448 301.23792,75.60448 Z M319.0104,75.60448 C321.031232,75.60448 322.66944,77.242688 322.66944,79.26352 C322.66944,81.284352 321.031232,82.92256 319.0104,82.92256 C316.989568,82.92256 315.35136,81.284352 315.35136,79.26352 C315.35136,77.242688 316.989568,75.60448 319.0104,75.60448 Z M336.78288,75.60448 C338.803712,75.60448 340.44192,77.242688 340.44192,79.26352 C340.44192,81.284352 338.803712,82.92256 336.78288,82.92256 C334.762048,82.92256 333.12384,81.284352 333.12384,79.26352 C333.12384,77.242688 334.762048,75.60448 336.78288,75.60448 Z M354.55536,75.60448 C356.576192,75.60448 358.2144,77.242688 358.2144,79.26352 C358.2144,81.284352 356.576192,82.92256 354.55536,82.92256 C352.534528,82.92256 350.89632,81.284352 350.89632,79.26352 C350.89632,77.242688 352.534528,75.60448 354.55536,75.60448 Z M372.32784,75.60448 C374.348672,75.60448 375.98688,77.242688 375.98688,79.26352 C375.98688,81.284352 374.348672,82.92256 372.32784,82.92256 C370.307008,82.92256 368.6688,81.284352 368.6688,79.26352 C368.6688,77.242688 370.307008,75.60448 372.32784,75.60448 Z M390.10032,75.60448 C392.121152,75.60448 393.75936,77.242688 393.75936,79.26352 C393.75936,81.284352 392.121152,82.92256 390.10032,82.92256 C388.079488,82.92256 386.44128,81.284352 386.44128,79.26352 C386.44128,77.242688 388.079488,75.60448 390.10032,75.60448 Z M372.32784,56.78656 C374.348672,56.78656 375.98688,58.424768 375.98688,60.4456 C375.98688,62.466432 374.348672,64.10464 372.32784,64.10464 C370.307008,64.10464 368.6688,62.466432 368.6688,60.4456 C368.6688,58.424768 370.307008,56.78656 372.32784,56.78656 Z M283.46544,56.78656 C285.486272,56.78656 287.12448,58.424768 287.12448,60.4456 C287.12448,62.466432 285.486272,64.10464 283.46544,64.10464 C281.444608,64.10464 279.8064,62.466432 279.8064,60.4456 C279.8064,58.424768 281.444608,56.78656 283.46544,56.78656 Z M301.23792,56.78656 C303.258752,56.78656 304.89696,58.424768 304.89696,60.4456 C304.89696,62.466432 303.258752,64.10464 301.23792,64.10464 C299.217088,64.10464 297.57888,62.466432 297.57888,60.4456 C297.57888,58.424768 299.217088,56.78656 301.23792,56.78656 Z M336.78288,56.78656 C338.803712,56.78656 340.44192,58.424768 340.44192,60.4456 C340.44192,62.466432 338.803712,64.10464 336.78288,64.10464 C334.762048,64.10464 333.12384,62.466432 333.12384,60.4456 C333.12384,58.424768 334.762048,56.78656 336.78288,56.78656 Z M354.55536,56.78656 C356.576192,56.78656 358.2144,58.424768 358.2144,60.4456 C358.2144,62.466432 356.576192,64.10464 354.55536,64.10464 C352.534528,64.10464 350.89632,62.466432 350.89632,60.4456 C350.89632,58.424768 352.534528,56.78656 354.55536,56.78656 Z M390.10032,56.78656 C392.121152,56.78656 393.75936,58.424768 393.75936,60.4456 C393.75936,62.466432 392.121152,64.10464 390.10032,64.10464 C388.079488,64.10464 386.44128,62.466432 386.44128,60.4456 C386.44128,58.424768 388.079488,56.78656 390.10032,56.78656 Z M230.148,56.78656 C232.168832,56.78656 233.80704,58.424768 233.80704,60.4456 C233.80704,62.466432 232.168832,64.10464 230.148,64.10464 C228.127168,64.10464 226.48896,62.466432 226.48896,60.4456 C226.48896,58.424768 228.127168,56.78656 230.148,56.78656 Z M319.0104,56.78656 C321.031232,56.78656 322.66944,58.424768 322.66944,60.4456 C322.66944,62.466432 321.031232,64.10464 319.0104,64.10464 C316.989568,64.10464 315.35136,62.466432 315.35136,60.4456 C315.35136,58.424768 316.989568,56.78656 319.0104,56.78656 Z M247.92048,56.78656 C249.941312,56.78656 251.57952,58.424768 251.57952,60.4456 C251.57952,62.466432 249.941312,64.10464 247.92048,64.10464 C245.899648,64.10464 244.26144,62.466432 244.26144,60.4456 C244.26144,58.424768 245.899648,56.78656 247.92048,56.78656 Z M265.69296,56.78656 C267.713792,56.78656 269.352,58.424768 269.352,60.4456 C269.352,62.466432 267.713792,64.10464 265.69296,64.10464 C263.672128,64.10464 262.03392,62.466432 262.03392,60.4456 C262.03392,58.424768 263.672128,56.78656 265.69296,56.78656 Z M247.92048,37.96864 C249.941312,37.96864 251.57952,39.606848 251.57952,41.62768 C251.57952,43.648512 249.941312,45.28672 247.92048,45.28672 C245.899648,45.28672 244.26144,43.648512 244.26144,41.62768 C244.26144,39.606848 245.899648,37.96864 247.92048,37.96864 Z M283.46544,37.96864 C285.486272,37.96864 287.12448,39.606848 287.12448,41.62768 C287.12448,43.648512 285.486272,45.28672 283.46544,45.28672 C281.444608,45.28672 279.8064,43.648512 279.8064,41.62768 C279.8064,39.606848 281.444608,37.96864 283.46544,37.96864 Z M230.148,37.96864 C232.168832,37.96864 233.80704,39.606848 233.80704,41.62768 C233.80704,43.648512 232.168832,45.28672 230.148,45.28672 C228.127168,45.28672 226.48896,43.648512 226.48896,41.62768 C226.48896,39.606848 228.127168,37.96864 230.148,37.96864 Z M265.69296,37.96864 C267.713792,37.96864 269.352,39.606848 269.352,41.62768 C269.352,43.648512 267.713792,45.28672 265.69296,45.28672 C263.672128,45.28672 262.03392,43.648512 262.03392,41.62768 C262.03392,39.606848 263.672128,37.96864 265.69296,37.96864 Z M301.23792,37.96864 C303.258752,37.96864 304.89696,39.606848 304.89696,41.62768 C304.89696,43.648512 303.258752,45.28672 301.23792,45.28672 C299.217088,45.28672 297.57888,43.648512 297.57888,41.62768 C297.57888,39.606848 299.217088,37.96864 301.23792,37.96864 Z M319.0104,37.96864 C321.031232,37.96864 322.66944,39.606848 322.66944,41.62768 C322.66944,43.648512 321.031232,45.28672 319.0104,45.28672 C316.989568,45.28672 315.35136,43.648512 315.35136,41.62768 C315.35136,39.606848 316.989568,37.96864 319.0104,37.96864 Z M336.78288,37.96864 C338.803712,37.96864 340.44192,39.606848 340.44192,41.62768 C340.44192,43.648512 338.803712,45.28672 336.78288,45.28672 C334.762048,45.28672 333.12384,43.648512 333.12384,41.62768 C333.12384,39.606848 334.762048,37.96864 336.78288,37.96864 Z M354.55536,37.96864 C356.576192,37.96864 358.2144,39.606848 358.2144,41.62768 C358.2144,43.648512 356.576192,45.28672 354.55536,45.28672 C352.534528,45.28672 350.89632,43.648512 350.89632,41.62768 C350.89632,39.606848 352.534528,37.96864 354.55536,37.96864 Z M372.32784,37.96864 C374.348672,37.96864 375.98688,39.606848 375.98688,41.62768 C375.98688,43.648512 374.348672,45.28672 372.32784,45.28672 C370.307008,45.28672 368.6688,43.648512 368.6688,41.62768 C368.6688,39.606848 370.307008,37.96864 372.32784,37.96864 Z M390.10032,37.96864 C392.121152,37.96864 393.75936,39.606848 393.75936,41.62768 C393.75936,43.648512 392.121152,45.28672 390.10032,45.28672 C388.079488,45.28672 386.44128,43.648512 386.44128,41.62768 C386.44128,39.606848 388.079488,37.96864 390.10032,37.96864 Z M319.0104,19.15072 C321.031232,19.15072 322.66944,20.788928 322.66944,22.80976 C322.66944,24.830592 321.031232,26.4688 319.0104,26.4688 C316.989568,26.4688 315.35136,24.830592 315.35136,22.80976 C315.35136,20.788928 316.989568,19.15072 319.0104,19.15072 Z M336.78288,19.15072 C338.803712,19.15072 340.44192,20.788928 340.44192,22.80976 C340.44192,24.830592 338.803712,26.4688 336.78288,26.4688 C334.762048,26.4688 333.12384,24.830592 333.12384,22.80976 C333.12384,20.788928 334.762048,19.15072 336.78288,19.15072 Z M372.32784,19.15072 C374.348672,19.15072 375.98688,20.788928 375.98688,22.80976 C375.98688,24.830592 374.348672,26.4688 372.32784,26.4688 C370.307008,26.4688 368.6688,24.830592 368.6688,22.80976 C368.6688,20.788928 370.307008,19.15072 372.32784,19.15072 Z M301.23792,19.15072 C303.258752,19.15072 304.89696,20.788928 304.89696,22.80976 C304.89696,24.830592 303.258752,26.4688 301.23792,26.4688 C299.217088,26.4688 297.57888,24.830592 297.57888,22.80976 C297.57888,20.788928 299.217088,19.15072 301.23792,19.15072 Z M230.148,19.15072 C232.168832,19.15072 233.80704,20.788928 233.80704,22.80976 C233.80704,24.830592 232.168832,26.4688 230.148,26.4688 C228.127168,26.4688 226.48896,24.830592 226.48896,22.80976 C226.48896,20.788928 228.127168,19.15072 230.148,19.15072 Z M247.92048,19.15072 C249.941312,19.15072 251.57952,20.788928 251.57952,22.80976 C251.57952,24.830592 249.941312,26.4688 247.92048,26.4688 C245.899648,26.4688 244.26144,24.830592 244.26144,22.80976 C244.26144,20.788928 245.899648,19.15072 247.92048,19.15072 Z M283.46544,19.15072 C285.486272,19.15072 287.12448,20.788928 287.12448,22.80976 C287.12448,24.830592 285.486272,26.4688 283.46544,26.4688 C281.444608,26.4688 279.8064,24.830592 279.8064,22.80976 C279.8064,20.788928 281.444608,19.15072 283.46544,19.15072 Z M354.55536,19.15072 C356.576192,19.15072 358.2144,20.788928 358.2144,22.80976 C358.2144,24.830592 356.576192,26.4688 354.55536,26.4688 C352.534528,26.4688 350.89632,24.830592 350.89632,22.80976 C350.89632,20.788928 352.534528,19.15072 354.55536,19.15072 Z M265.69296,19.15072 C267.713792,19.15072 269.352,20.788928 269.352,22.80976 C269.352,24.830592 267.713792,26.4688 265.69296,26.4688 C263.672128,26.4688 262.03392,24.830592 262.03392,22.80976 C262.03392,20.788928 263.672128,19.15072 265.69296,19.15072 Z M390.10032,19.15072 C392.121152,19.15072 393.75936,20.788928 393.75936,22.80976 C393.75936,24.830592 392.121152,26.4688 390.10032,26.4688 C388.079488,26.4688 386.44128,24.830592 386.44128,22.80976 C386.44128,20.788928 388.079488,19.15072 390.10032,19.15072 Z M230.148,0.3328 C232.168832,0.3328 233.80704,1.97100801 233.80704,3.99184 C233.80704,6.01267199 232.168832,7.65088 230.148,7.65088 C228.127168,7.65088 226.48896,6.01267199 226.48896,3.99184 C226.48896,1.97100801 228.127168,0.3328 230.148,0.3328 Z M247.92048,0.3328 C249.941312,0.3328 251.57952,1.97100801 251.57952,3.99184 C251.57952,6.01267199 249.941312,7.65088 247.92048,7.65088 C245.899648,7.65088 244.26144,6.01267199 244.26144,3.99184 C244.26144,1.97100801 245.899648,0.3328 247.92048,0.3328 Z M265.69296,0.3328 C267.713792,0.3328 269.352,1.97100801 269.352,3.99184 C269.352,6.01267199 267.713792,7.65088 265.69296,7.65088 C263.672128,7.65088 262.03392,6.01267199 262.03392,3.99184 C262.03392,1.97100801 263.672128,0.3328 265.69296,0.3328 Z M283.46544,0.3328 C285.486272,0.3328 287.12448,1.97100801 287.12448,3.99184 C287.12448,6.01267199 285.486272,7.65088 283.46544,7.65088 C281.444608,7.65088 279.8064,6.01267199 279.8064,3.99184 C279.8064,1.97100801 281.444608,0.3328 283.46544,0.3328 Z M301.23792,0.3328 C303.258752,0.3328 304.89696,1.97100801 304.89696,3.99184 C304.89696,6.01267199 303.258752,7.65088 301.23792,7.65088 C299.217088,7.65088 297.57888,6.01267199 297.57888,3.99184 C297.57888,1.97100801 299.217088,0.3328 301.23792,0.3328 Z M319.0104,0.3328 C321.031232,0.3328 322.66944,1.97100801 322.66944,3.99184 C322.66944,6.01267199 321.031232,7.65088 319.0104,7.65088 C316.989568,7.65088 315.35136,6.01267199 315.35136,3.99184 C315.35136,1.97100801 316.989568,0.3328 319.0104,0.3328 Z M336.78288,0.3328 C338.803712,0.3328 340.44192,1.97100801 340.44192,3.99184 C340.44192,6.01267199 338.803712,7.65088 336.78288,7.65088 C334.762048,7.65088 333.12384,6.01267199 333.12384,3.99184 C333.12384,1.97100801 334.762048,0.3328 336.78288,0.3328 Z M354.55536,0.3328 C356.576192,0.3328 358.2144,1.97100801 358.2144,3.99184 C358.2144,6.01267199 356.576192,7.65088 354.55536,7.65088 C352.534528,7.65088 350.89632,6.01267199 350.89632,3.99184 C350.89632,1.97100801 352.534528,0.3328 354.55536,0.3328 Z M372.32784,0.3328 C374.348672,0.3328 375.98688,1.97100801 375.98688,3.99184 C375.98688,6.01267199 374.348672,7.65088 372.32784,7.65088 C370.307008,7.65088 368.6688,6.01267199 368.6688,3.99184 C368.6688,1.97100801 370.307008,0.3328 372.32784,0.3328 Z M390.10032,0.3328 C392.121152,0.3328 393.75936,1.97100801 393.75936,3.99184 C393.75936,6.01267199 392.121152,7.65088 390.10032,7.65088 C388.079488,7.65088 386.44128,6.01267199 386.44128,3.99184 C386.44128,1.97100801 388.079488,0.3328 390.10032,0.3328 Z" id="形状结合" fill="#F5FAFF"></path>
                        <path d="M608.45904,591.53344 C610.479872,591.53344 612.11808,593.171648 612.11808,595.19248 C612.11808,597.213312 610.479872,598.85152 608.45904,598.85152 C606.438208,598.85152 604.8,597.213312 604.8,595.19248 C604.8,593.171648 606.438208,591.53344 608.45904,591.53344 Z M626.23152,591.53344 C628.252352,591.53344 629.89056,593.171648 629.89056,595.19248 C629.89056,597.213312 628.252352,598.85152 626.23152,598.85152 C624.210688,598.85152 622.57248,597.213312 622.57248,595.19248 C622.57248,593.171648 624.210688,591.53344 626.23152,591.53344 Z M644.004,591.53344 C646.024832,591.53344 647.66304,593.171648 647.66304,595.19248 C647.66304,597.213312 646.024832,598.85152 644.004,598.85152 C641.983168,598.85152 640.34496,597.213312 640.34496,595.19248 C640.34496,593.171648 641.983168,591.53344 644.004,591.53344 Z M661.77648,591.53344 C663.797312,591.53344 665.43552,593.171648 665.43552,595.19248 C665.43552,597.213312 663.797312,598.85152 661.77648,598.85152 C659.755648,598.85152 658.11744,597.213312 658.11744,595.19248 C658.11744,593.171648 659.755648,591.53344 661.77648,591.53344 Z M679.54896,591.53344 C681.569792,591.53344 683.208,593.171648 683.208,595.19248 C683.208,597.213312 681.569792,598.85152 679.54896,598.85152 C677.528128,598.85152 675.88992,597.213312 675.88992,595.19248 C675.88992,593.171648 677.528128,591.53344 679.54896,591.53344 Z M697.32144,591.53344 C699.342272,591.53344 700.98048,593.171648 700.98048,595.19248 C700.98048,597.213312 699.342272,598.85152 697.32144,598.85152 C695.300608,598.85152 693.6624,597.213312 693.6624,595.19248 C693.6624,593.171648 695.300608,591.53344 697.32144,591.53344 Z M715.09392,591.53344 C717.114752,591.53344 718.75296,593.171648 718.75296,595.19248 C718.75296,597.213312 717.114752,598.85152 715.09392,598.85152 C713.073088,598.85152 711.43488,597.213312 711.43488,595.19248 C711.43488,593.171648 713.073088,591.53344 715.09392,591.53344 Z M732.8664,591.53344 C734.887232,591.53344 736.52544,593.171648 736.52544,595.19248 C736.52544,597.213312 734.887232,598.85152 732.8664,598.85152 C730.845568,598.85152 729.20736,597.213312 729.20736,595.19248 C729.20736,593.171648 730.845568,591.53344 732.8664,591.53344 Z M750.63888,591.53344 C752.659712,591.53344 754.29792,593.171648 754.29792,595.19248 C754.29792,597.213312 752.659712,598.85152 750.63888,598.85152 C748.618048,598.85152 746.97984,597.213312 746.97984,595.19248 C746.97984,593.171648 748.618048,591.53344 750.63888,591.53344 Z M768.41136,591.53344 C770.432192,591.53344 772.0704,593.171648 772.0704,595.19248 C772.0704,597.213312 770.432192,598.85152 768.41136,598.85152 C766.390528,598.85152 764.75232,597.213312 764.75232,595.19248 C764.75232,593.171648 766.390528,591.53344 768.41136,591.53344 Z M661.77648,572.71552 C663.797312,572.71552 665.43552,574.353728 665.43552,576.37456 C665.43552,578.395392 663.797312,580.0336 661.77648,580.0336 C659.755648,580.0336 658.11744,578.395392 658.11744,576.37456 C658.11744,574.353728 659.755648,572.71552 661.77648,572.71552 Z M679.54896,572.71552 C681.569792,572.71552 683.208,574.353728 683.208,576.37456 C683.208,578.395392 681.569792,580.0336 679.54896,580.0336 C677.528128,580.0336 675.88992,578.395392 675.88992,576.37456 C675.88992,574.353728 677.528128,572.71552 679.54896,572.71552 Z M697.32144,572.71552 C699.342272,572.71552 700.98048,574.353728 700.98048,576.37456 C700.98048,578.395392 699.342272,580.0336 697.32144,580.0336 C695.300608,580.0336 693.6624,578.395392 693.6624,576.37456 C693.6624,574.353728 695.300608,572.71552 697.32144,572.71552 Z M715.09392,572.71552 C717.114752,572.71552 718.75296,574.353728 718.75296,576.37456 C718.75296,578.395392 717.114752,580.0336 715.09392,580.0336 C713.073088,580.0336 711.43488,578.395392 711.43488,576.37456 C711.43488,574.353728 713.073088,572.71552 715.09392,572.71552 Z M608.45904,572.71552 C610.479872,572.71552 612.11808,574.353728 612.11808,576.37456 C612.11808,578.395392 610.479872,580.0336 608.45904,580.0336 C606.438208,580.0336 604.8,578.395392 604.8,576.37456 C604.8,574.353728 606.438208,572.71552 608.45904,572.71552 Z M732.8664,572.71552 C734.887232,572.71552 736.52544,574.353728 736.52544,576.37456 C736.52544,578.395392 734.887232,580.0336 732.8664,580.0336 C730.845568,580.0336 729.20736,578.395392 729.20736,576.37456 C729.20736,574.353728 730.845568,572.71552 732.8664,572.71552 Z M626.23152,572.71552 C628.252352,572.71552 629.89056,574.353728 629.89056,576.37456 C629.89056,578.395392 628.252352,580.0336 626.23152,580.0336 C624.210688,580.0336 622.57248,578.395392 622.57248,576.37456 C622.57248,574.353728 624.210688,572.71552 626.23152,572.71552 Z M750.63888,572.71552 C752.659712,572.71552 754.29792,574.353728 754.29792,576.37456 C754.29792,578.395392 752.659712,580.0336 750.63888,580.0336 C748.618048,580.0336 746.97984,578.395392 746.97984,576.37456 C746.97984,574.353728 748.618048,572.71552 750.63888,572.71552 Z M644.004,572.71552 C646.024832,572.71552 647.66304,574.353728 647.66304,576.37456 C647.66304,578.395392 646.024832,580.0336 644.004,580.0336 C641.983168,580.0336 640.34496,578.395392 640.34496,576.37456 C640.34496,574.353728 641.983168,572.71552 644.004,572.71552 Z M768.41136,572.71552 C770.432192,572.71552 772.0704,574.353728 772.0704,576.37456 C772.0704,578.395392 770.432192,580.0336 768.41136,580.0336 C766.390528,580.0336 764.75232,578.395392 764.75232,576.37456 C764.75232,574.353728 766.390528,572.71552 768.41136,572.71552 Z M608.45904,553.8976 C610.479872,553.8976 612.11808,555.535808 612.11808,557.55664 C612.11808,559.577472 610.479872,561.21568 608.45904,561.21568 C606.438208,561.21568 604.8,559.577472 604.8,557.55664 C604.8,555.535808 606.438208,553.8976 608.45904,553.8976 Z M626.23152,553.8976 C628.252352,553.8976 629.89056,555.535808 629.89056,557.55664 C629.89056,559.577472 628.252352,561.21568 626.23152,561.21568 C624.210688,561.21568 622.57248,559.577472 622.57248,557.55664 C622.57248,555.535808 624.210688,553.8976 626.23152,553.8976 Z M697.32144,553.8976 C699.342272,553.8976 700.98048,555.535808 700.98048,557.55664 C700.98048,559.577472 699.342272,561.21568 697.32144,561.21568 C695.300608,561.21568 693.6624,559.577472 693.6624,557.55664 C693.6624,555.535808 695.300608,553.8976 697.32144,553.8976 Z M715.09392,553.8976 C717.114752,553.8976 718.75296,555.535808 718.75296,557.55664 C718.75296,559.577472 717.114752,561.21568 715.09392,561.21568 C713.073088,561.21568 711.43488,559.577472 711.43488,557.55664 C711.43488,555.535808 713.073088,553.8976 715.09392,553.8976 Z M732.8664,553.8976 C734.887232,553.8976 736.52544,555.535808 736.52544,557.55664 C736.52544,559.577472 734.887232,561.21568 732.8664,561.21568 C730.845568,561.21568 729.20736,559.577472 729.20736,557.55664 C729.20736,555.535808 730.845568,553.8976 732.8664,553.8976 Z M644.004,553.8976 C646.024832,553.8976 647.66304,555.535808 647.66304,557.55664 C647.66304,559.577472 646.024832,561.21568 644.004,561.21568 C641.983168,561.21568 640.34496,559.577472 640.34496,557.55664 C640.34496,555.535808 641.983168,553.8976 644.004,553.8976 Z M750.63888,553.8976 C752.659712,553.8976 754.29792,555.535808 754.29792,557.55664 C754.29792,559.577472 752.659712,561.21568 750.63888,561.21568 C748.618048,561.21568 746.97984,559.577472 746.97984,557.55664 C746.97984,555.535808 748.618048,553.8976 750.63888,553.8976 Z M661.77648,553.8976 C663.797312,553.8976 665.43552,555.535808 665.43552,557.55664 C665.43552,559.577472 663.797312,561.21568 661.77648,561.21568 C659.755648,561.21568 658.11744,559.577472 658.11744,557.55664 C658.11744,555.535808 659.755648,553.8976 661.77648,553.8976 Z M768.41136,553.8976 C770.432192,553.8976 772.0704,555.535808 772.0704,557.55664 C772.0704,559.577472 770.432192,561.21568 768.41136,561.21568 C766.390528,561.21568 764.75232,559.577472 764.75232,557.55664 C764.75232,555.535808 766.390528,553.8976 768.41136,553.8976 Z M679.54896,553.8976 C681.569792,553.8976 683.208,555.535808 683.208,557.55664 C683.208,559.577472 681.569792,561.21568 679.54896,561.21568 C677.528128,561.21568 675.88992,559.577472 675.88992,557.55664 C675.88992,555.535808 677.528128,553.8976 679.54896,553.8976 Z M608.45904,535.07968 C610.479872,535.07968 612.11808,536.717888 612.11808,538.73872 C612.11808,540.759552 610.479872,542.39776 608.45904,542.39776 C606.438208,542.39776 604.8,540.759552 604.8,538.73872 C604.8,536.717888 606.438208,535.07968 608.45904,535.07968 Z M626.23152,535.07968 C628.252352,535.07968 629.89056,536.717888 629.89056,538.73872 C629.89056,540.759552 628.252352,542.39776 626.23152,542.39776 C624.210688,542.39776 622.57248,540.759552 622.57248,538.73872 C622.57248,536.717888 624.210688,535.07968 626.23152,535.07968 Z M644.004,535.07968 C646.024832,535.07968 647.66304,536.717888 647.66304,538.73872 C647.66304,540.759552 646.024832,542.39776 644.004,542.39776 C641.983168,542.39776 640.34496,540.759552 640.34496,538.73872 C640.34496,536.717888 641.983168,535.07968 644.004,535.07968 Z M661.77648,535.07968 C663.797312,535.07968 665.43552,536.717888 665.43552,538.73872 C665.43552,540.759552 663.797312,542.39776 661.77648,542.39776 C659.755648,542.39776 658.11744,540.759552 658.11744,538.73872 C658.11744,536.717888 659.755648,535.07968 661.77648,535.07968 Z M679.54896,535.07968 C681.569792,535.07968 683.208,536.717888 683.208,538.73872 C683.208,540.759552 681.569792,542.39776 679.54896,542.39776 C677.528128,542.39776 675.88992,540.759552 675.88992,538.73872 C675.88992,536.717888 677.528128,535.07968 679.54896,535.07968 Z M697.32144,535.07968 C699.342272,535.07968 700.98048,536.717888 700.98048,538.73872 C700.98048,540.759552 699.342272,542.39776 697.32144,542.39776 C695.300608,542.39776 693.6624,540.759552 693.6624,538.73872 C693.6624,536.717888 695.300608,535.07968 697.32144,535.07968 Z M715.09392,535.07968 C717.114752,535.07968 718.75296,536.717888 718.75296,538.73872 C718.75296,540.759552 717.114752,542.39776 715.09392,542.39776 C713.073088,542.39776 711.43488,540.759552 711.43488,538.73872 C711.43488,536.717888 713.073088,535.07968 715.09392,535.07968 Z M732.8664,535.07968 C734.887232,535.07968 736.52544,536.717888 736.52544,538.73872 C736.52544,540.759552 734.887232,542.39776 732.8664,542.39776 C730.845568,542.39776 729.20736,540.759552 729.20736,538.73872 C729.20736,536.717888 730.845568,535.07968 732.8664,535.07968 Z M750.63888,535.07968 C752.659712,535.07968 754.29792,536.717888 754.29792,538.73872 C754.29792,540.759552 752.659712,542.39776 750.63888,542.39776 C748.618048,542.39776 746.97984,540.759552 746.97984,538.73872 C746.97984,536.717888 748.618048,535.07968 750.63888,535.07968 Z M768.41136,535.07968 C770.432192,535.07968 772.0704,536.717888 772.0704,538.73872 C772.0704,540.759552 770.432192,542.39776 768.41136,542.39776 C766.390528,542.39776 764.75232,540.759552 764.75232,538.73872 C764.75232,536.717888 766.390528,535.07968 768.41136,535.07968 Z M750.63888,516.26176 C752.659712,516.26176 754.29792,517.899968 754.29792,519.9208 C754.29792,521.941632 752.659712,523.57984 750.63888,523.57984 C748.618048,523.57984 746.97984,521.941632 746.97984,519.9208 C746.97984,517.899968 748.618048,516.26176 750.63888,516.26176 Z M661.77648,516.26176 C663.797312,516.26176 665.43552,517.899968 665.43552,519.9208 C665.43552,521.941632 663.797312,523.57984 661.77648,523.57984 C659.755648,523.57984 658.11744,521.941632 658.11744,519.9208 C658.11744,517.899968 659.755648,516.26176 661.77648,516.26176 Z M679.54896,516.26176 C681.569792,516.26176 683.208,517.899968 683.208,519.9208 C683.208,521.941632 681.569792,523.57984 679.54896,523.57984 C677.528128,523.57984 675.88992,521.941632 675.88992,519.9208 C675.88992,517.899968 677.528128,516.26176 679.54896,516.26176 Z M715.09392,516.26176 C717.114752,516.26176 718.75296,517.899968 718.75296,519.9208 C718.75296,521.941632 717.114752,523.57984 715.09392,523.57984 C713.073088,523.57984 711.43488,521.941632 711.43488,519.9208 C711.43488,517.899968 713.073088,516.26176 715.09392,516.26176 Z M732.8664,516.26176 C734.887232,516.26176 736.52544,517.899968 736.52544,519.9208 C736.52544,521.941632 734.887232,523.57984 732.8664,523.57984 C730.845568,523.57984 729.20736,521.941632 729.20736,519.9208 C729.20736,517.899968 730.845568,516.26176 732.8664,516.26176 Z M768.41136,516.26176 C770.432192,516.26176 772.0704,517.899968 772.0704,519.9208 C772.0704,521.941632 770.432192,523.57984 768.41136,523.57984 C766.390528,523.57984 764.75232,521.941632 764.75232,519.9208 C764.75232,517.899968 766.390528,516.26176 768.41136,516.26176 Z M608.45904,516.26176 C610.479872,516.26176 612.11808,517.899968 612.11808,519.9208 C612.11808,521.941632 610.479872,523.57984 608.45904,523.57984 C606.438208,523.57984 604.8,521.941632 604.8,519.9208 C604.8,517.899968 606.438208,516.26176 608.45904,516.26176 Z M697.32144,516.26176 C699.342272,516.26176 700.98048,517.899968 700.98048,519.9208 C700.98048,521.941632 699.342272,523.57984 697.32144,523.57984 C695.300608,523.57984 693.6624,521.941632 693.6624,519.9208 C693.6624,517.899968 695.300608,516.26176 697.32144,516.26176 Z M626.23152,516.26176 C628.252352,516.26176 629.89056,517.899968 629.89056,519.9208 C629.89056,521.941632 628.252352,523.57984 626.23152,523.57984 C624.210688,523.57984 622.57248,521.941632 622.57248,519.9208 C622.57248,517.899968 624.210688,516.26176 626.23152,516.26176 Z M644.004,516.26176 C646.024832,516.26176 647.66304,517.899968 647.66304,519.9208 C647.66304,521.941632 646.024832,523.57984 644.004,523.57984 C641.983168,523.57984 640.34496,521.941632 640.34496,519.9208 C640.34496,517.899968 641.983168,516.26176 644.004,516.26176 Z M626.23152,497.44384 C628.252352,497.44384 629.89056,499.082048 629.89056,501.10288 C629.89056,503.123712 628.252352,504.76192 626.23152,504.76192 C624.210688,504.76192 622.57248,503.123712 622.57248,501.10288 C622.57248,499.082048 624.210688,497.44384 626.23152,497.44384 Z M661.77648,497.44384 C663.797312,497.44384 665.43552,499.082048 665.43552,501.10288 C665.43552,503.123712 663.797312,504.76192 661.77648,504.76192 C659.755648,504.76192 658.11744,503.123712 658.11744,501.10288 C658.11744,499.082048 659.755648,497.44384 661.77648,497.44384 Z M608.45904,497.44384 C610.479872,497.44384 612.11808,499.082048 612.11808,501.10288 C612.11808,503.123712 610.479872,504.76192 608.45904,504.76192 C606.438208,504.76192 604.8,503.123712 604.8,501.10288 C604.8,499.082048 606.438208,497.44384 608.45904,497.44384 Z M644.004,497.44384 C646.024832,497.44384 647.66304,499.082048 647.66304,501.10288 C647.66304,503.123712 646.024832,504.76192 644.004,504.76192 C641.983168,504.76192 640.34496,503.123712 640.34496,501.10288 C640.34496,499.082048 641.983168,497.44384 644.004,497.44384 Z M679.54896,497.44384 C681.569792,497.44384 683.208,499.082048 683.208,501.10288 C683.208,503.123712 681.569792,504.76192 679.54896,504.76192 C677.528128,504.76192 675.88992,503.123712 675.88992,501.10288 C675.88992,499.082048 677.528128,497.44384 679.54896,497.44384 Z M697.32144,497.44384 C699.342272,497.44384 700.98048,499.082048 700.98048,501.10288 C700.98048,503.123712 699.342272,504.76192 697.32144,504.76192 C695.300608,504.76192 693.6624,503.123712 693.6624,501.10288 C693.6624,499.082048 695.300608,497.44384 697.32144,497.44384 Z M715.09392,497.44384 C717.114752,497.44384 718.75296,499.082048 718.75296,501.10288 C718.75296,503.123712 717.114752,504.76192 715.09392,504.76192 C713.073088,504.76192 711.43488,503.123712 711.43488,501.10288 C711.43488,499.082048 713.073088,497.44384 715.09392,497.44384 Z M732.8664,497.44384 C734.887232,497.44384 736.52544,499.082048 736.52544,501.10288 C736.52544,503.123712 734.887232,504.76192 732.8664,504.76192 C730.845568,504.76192 729.20736,503.123712 729.20736,501.10288 C729.20736,499.082048 730.845568,497.44384 732.8664,497.44384 Z M750.63888,497.44384 C752.659712,497.44384 754.29792,499.082048 754.29792,501.10288 C754.29792,503.123712 752.659712,504.76192 750.63888,504.76192 C748.618048,504.76192 746.97984,503.123712 746.97984,501.10288 C746.97984,499.082048 748.618048,497.44384 750.63888,497.44384 Z M768.41136,497.44384 C770.432192,497.44384 772.0704,499.082048 772.0704,501.10288 C772.0704,503.123712 770.432192,504.76192 768.41136,504.76192 C766.390528,504.76192 764.75232,503.123712 764.75232,501.10288 C764.75232,499.082048 766.390528,497.44384 768.41136,497.44384 Z M697.32144,478.62592 C699.342272,478.62592 700.98048,480.264128 700.98048,482.28496 C700.98048,484.305792 699.342272,485.944 697.32144,485.944 C695.300608,485.944 693.6624,484.305792 693.6624,482.28496 C693.6624,480.264128 695.300608,478.62592 697.32144,478.62592 Z M715.09392,478.62592 C717.114752,478.62592 718.75296,480.264128 718.75296,482.28496 C718.75296,484.305792 717.114752,485.944 715.09392,485.944 C713.073088,485.944 711.43488,484.305792 711.43488,482.28496 C711.43488,480.264128 713.073088,478.62592 715.09392,478.62592 Z M750.63888,478.62592 C752.659712,478.62592 754.29792,480.264128 754.29792,482.28496 C754.29792,484.305792 752.659712,485.944 750.63888,485.944 C748.618048,485.944 746.97984,484.305792 746.97984,482.28496 C746.97984,480.264128 748.618048,478.62592 750.63888,478.62592 Z M679.54896,478.62592 C681.569792,478.62592 683.208,480.264128 683.208,482.28496 C683.208,484.305792 681.569792,485.944 679.54896,485.944 C677.528128,485.944 675.88992,484.305792 675.88992,482.28496 C675.88992,480.264128 677.528128,478.62592 679.54896,478.62592 Z M608.45904,478.62592 C610.479872,478.62592 612.11808,480.264128 612.11808,482.28496 C612.11808,484.305792 610.479872,485.944 608.45904,485.944 C606.438208,485.944 604.8,484.305792 604.8,482.28496 C604.8,480.264128 606.438208,478.62592 608.45904,478.62592 Z M626.23152,478.62592 C628.252352,478.62592 629.89056,480.264128 629.89056,482.28496 C629.89056,484.305792 628.252352,485.944 626.23152,485.944 C624.210688,485.944 622.57248,484.305792 622.57248,482.28496 C622.57248,480.264128 624.210688,478.62592 626.23152,478.62592 Z M661.77648,478.62592 C663.797312,478.62592 665.43552,480.264128 665.43552,482.28496 C665.43552,484.305792 663.797312,485.944 661.77648,485.944 C659.755648,485.944 658.11744,484.305792 658.11744,482.28496 C658.11744,480.264128 659.755648,478.62592 661.77648,478.62592 Z M732.8664,478.62592 C734.887232,478.62592 736.52544,480.264128 736.52544,482.28496 C736.52544,484.305792 734.887232,485.944 732.8664,485.944 C730.845568,485.944 729.20736,484.305792 729.20736,482.28496 C729.20736,480.264128 730.845568,478.62592 732.8664,478.62592 Z M644.004,478.62592 C646.024832,478.62592 647.66304,480.264128 647.66304,482.28496 C647.66304,484.305792 646.024832,485.944 644.004,485.944 C641.983168,485.944 640.34496,484.305792 640.34496,482.28496 C640.34496,480.264128 641.983168,478.62592 644.004,478.62592 Z M768.41136,478.62592 C770.432192,478.62592 772.0704,480.264128 772.0704,482.28496 C772.0704,484.305792 770.432192,485.944 768.41136,485.944 C766.390528,485.944 764.75232,484.305792 764.75232,482.28496 C764.75232,480.264128 766.390528,478.62592 768.41136,478.62592 Z M608.45904,459.808 C610.479872,459.808 612.11808,461.446208 612.11808,463.46704 C612.11808,465.487872 610.479872,467.12608 608.45904,467.12608 C606.438208,467.12608 604.8,465.487872 604.8,463.46704 C604.8,461.446208 606.438208,459.808 608.45904,459.808 Z M626.23152,459.808 C628.252352,459.808 629.89056,461.446208 629.89056,463.46704 C629.89056,465.487872 628.252352,467.12608 626.23152,467.12608 C624.210688,467.12608 622.57248,465.487872 622.57248,463.46704 C622.57248,461.446208 624.210688,459.808 626.23152,459.808 Z M644.004,459.808 C646.024832,459.808 647.66304,461.446208 647.66304,463.46704 C647.66304,465.487872 646.024832,467.12608 644.004,467.12608 C641.983168,467.12608 640.34496,465.487872 640.34496,463.46704 C640.34496,461.446208 641.983168,459.808 644.004,459.808 Z M661.77648,459.808 C663.797312,459.808 665.43552,461.446208 665.43552,463.46704 C665.43552,465.487872 663.797312,467.12608 661.77648,467.12608 C659.755648,467.12608 658.11744,465.487872 658.11744,463.46704 C658.11744,461.446208 659.755648,459.808 661.77648,459.808 Z M679.54896,459.808 C681.569792,459.808 683.208,461.446208 683.208,463.46704 C683.208,465.487872 681.569792,467.12608 679.54896,467.12608 C677.528128,467.12608 675.88992,465.487872 675.88992,463.46704 C675.88992,461.446208 677.528128,459.808 679.54896,459.808 Z M697.32144,459.808 C699.342272,459.808 700.98048,461.446208 700.98048,463.46704 C700.98048,465.487872 699.342272,467.12608 697.32144,467.12608 C695.300608,467.12608 693.6624,465.487872 693.6624,463.46704 C693.6624,461.446208 695.300608,459.808 697.32144,459.808 Z M715.09392,459.808 C717.114752,459.808 718.75296,461.446208 718.75296,463.46704 C718.75296,465.487872 717.114752,467.12608 715.09392,467.12608 C713.073088,467.12608 711.43488,465.487872 711.43488,463.46704 C711.43488,461.446208 713.073088,459.808 715.09392,459.808 Z M732.8664,459.808 C734.887232,459.808 736.52544,461.446208 736.52544,463.46704 C736.52544,465.487872 734.887232,467.12608 732.8664,467.12608 C730.845568,467.12608 729.20736,465.487872 729.20736,463.46704 C729.20736,461.446208 730.845568,459.808 732.8664,459.808 Z M750.63888,459.808 C752.659712,459.808 754.29792,461.446208 754.29792,463.46704 C754.29792,465.487872 752.659712,467.12608 750.63888,467.12608 C748.618048,467.12608 746.97984,465.487872 746.97984,463.46704 C746.97984,461.446208 748.618048,459.808 750.63888,459.808 Z M768.41136,459.808 C770.432192,459.808 772.0704,461.446208 772.0704,463.46704 C772.0704,465.487872 770.432192,467.12608 768.41136,467.12608 C766.390528,467.12608 764.75232,465.487872 764.75232,463.46704 C764.75232,461.446208 766.390528,459.808 768.41136,459.808 Z" id="形状结合" fill="#F5FAFF"></path>
                    </g>
                    <g id="编组-2" transform="translate(127.392000, 0.808000)">
                        <g id="中间内容" transform="translate(48.000000, 84.000000)">
                            <g id="蓝色" fill="url(#linearGradient-3)">
                                <path d="M392.545151,43.0543252 L468.56329,98.2847358 C472.667122,101.266344 474.384331,106.551372 472.816807,111.375715 L443.780462,200.740397 C442.212937,205.56474 437.717224,208.831067 432.644609,208.831067 L338.681023,208.831067 C333.608408,208.831067 329.112695,205.56474 327.54517,200.740397 L298.508825,111.375715 C296.941301,106.551372 298.65851,101.266344 302.762342,98.2847358 L378.780481,43.0543252 C382.884313,40.0727169 388.441319,40.0727169 392.545151,43.0543252 Z" id="多边形备份" transform="translate(385.662816, 132.457248) rotate(-36.000000) translate(-385.662816, -132.457248) "></path>
                                <path d="M452.553407,228.933557 L528.571546,284.163968 C532.675378,287.145576 534.392587,292.430604 532.825063,297.254947 L503.788718,386.619629 C502.221193,391.443972 497.72548,394.710299 492.652865,394.710299 L398.689279,394.710299 C393.616664,394.710299 389.120951,391.443972 387.553426,386.619629 L358.517081,297.254947 C356.949557,292.430604 358.666766,287.145576 362.770598,284.163968 L438.788737,228.933557 C442.892569,225.951949 448.449575,225.951949 452.553407,228.933557 Z" id="多边形备份-2" transform="translate(445.671072, 318.336480) rotate(-36.000000) translate(-445.671072, -318.336480) "></path>
                                <path d="M295.946495,340.168373 L371.964634,395.398784 C376.068466,398.380392 377.785675,403.66542 376.218151,408.489763 L347.181806,497.854445 C345.614281,502.678788 341.118568,505.945115 336.045953,505.945115 L242.082367,505.945115 C237.009752,505.945115 232.514039,502.678788 230.946514,497.854445 L201.910169,408.489763 C200.342645,403.66542 202.059854,398.380392 206.163686,395.398784 L282.181825,340.168373 C286.285657,337.186765 291.842663,337.186765 295.946495,340.168373 Z" id="多边形备份-3" transform="translate(289.064160, 429.571296) rotate(-36.000000) translate(-289.064160, -429.571296) "></path>
                                <path d="M139.339583,227.469941 L215.357722,282.700352 C219.461554,285.68196 221.178763,290.966988 219.611239,295.791331 L190.574894,385.156013 C189.007369,389.980356 184.511656,393.246683 179.439041,393.246683 L85.4754546,393.246683 C80.4028395,393.246683 75.9071266,389.980356 74.3396023,385.156013 L45.3032572,295.791331 C43.7357329,290.966988 45.4529424,285.68196 49.5567742,282.700352 L125.574913,227.469941 C129.678745,224.488333 135.235751,224.488333 139.339583,227.469941 Z" id="多边形备份-4" transform="translate(132.457248, 316.872864) rotate(-36.000000) translate(-132.457248, -316.872864) "></path>
                                <path d="M197.884223,43.0543252 L273.902362,98.2847358 C278.006194,101.266344 279.723403,106.551372 278.155879,111.375715 L249.119534,200.740397 C247.552009,205.56474 243.056296,208.831067 237.983681,208.831067 L144.020095,208.831067 C138.94748,208.831067 134.451767,205.56474 132.884242,200.740397 L103.847897,111.375715 C102.280373,106.551372 103.997582,101.266344 108.101414,98.2847358 L184.119553,43.0543252 C188.223385,40.0727169 193.780391,40.0727169 197.884223,43.0543252 Z" id="多边形备份-5" transform="translate(191.001888, 132.457248) rotate(-36.000000) translate(-191.001888, -132.457248) "></path>
                            </g>
                            <g id="白色" transform="translate(184.415616, 160.997760)">
                                <path d="M111.530879,5.00030921 L197.292888,67.3100563 C201.39672,70.2916646 203.11393,75.5766921 201.546406,80.4010357 L168.788233,181.220324 C167.220709,186.044668 162.724996,189.310995 157.652381,189.310995 L51.6447073,189.310995 C46.5720922,189.310995 42.0763793,186.044668 40.508855,181.220324 L7.75068243,80.4010357 C6.18315816,75.5766921 7.90036768,70.2916646 12.0041995,67.3100563 L97.7662088,5.00030921 C101.870041,2.01870086 107.427047,2.01870086 111.530879,5.00030921 Z" id="多边形" fill="url(#linearGradient-4)" opacity="0.490350632" filter="url(#filter-5)"></path>
                                <path d="M111.530879,15.2456212 L187.549018,70.4760318 C191.65285,73.4576401 193.370059,78.7426676 191.802535,83.5670113 L162.76619,172.931693 C161.198665,177.756036 156.702952,181.022363 151.630337,181.022363 L57.6667506,181.022363 C52.5941355,181.022363 48.0984226,177.756036 46.5308983,172.931693 L17.4945532,83.5670113 C15.9270289,78.7426676 17.6442384,73.4576401 21.7480702,70.4760318 L97.7662088,15.2456212 C101.870041,12.2640129 107.427047,12.2640129 111.530879,15.2456212 Z" id="多边形" fill="#FFFFFF"></path>
                            </g>
                            <g id="中间图标" transform="translate(245.887488, 222.469632)" fill="#398BFA" fill-rule="nonzero">
                                <path d="M65.3395916,42.9222544 L44.3801531,42.9222544 L44.3801531,21.9713918 C44.3801531,9.9823185 53.9165261,0.145789875 65.6311714,0.042879375 C71.4370388,-0.008575875 76.8827194,2.22115163 80.9819876,6.32041988 C85.0812559,10.4196881 87.3109834,15.8653688 87.268104,21.6626603 C87.1651935,33.3773055 77.3286649,42.9222544 65.3395916,42.9222544 L65.3395916,42.9222544 Z M49.2169466,38.0854609 L65.3395916,38.0854609 C74.6872954,38.0854609 82.3541276,30.7016325 82.4313105,21.6197809 C82.465614,17.1260224 80.7418631,12.9066919 77.5687894,9.73361813 C74.4300191,6.59484788 70.2621439,4.871097 65.8284165,4.871097 L65.6740508,4.871097 C56.600775,4.95685575 49.2169466,12.623688 49.2169466,21.9713917 L49.2169466,38.0854609 L49.2169466,38.0854609 Z M21.473991,87.268104 C15.7453065,87.268104 10.3682329,85.0383765 6.311844,80.9819876 C2.21257575,76.8827194 -0.01715175,71.4284629 0.0343035,65.6311714 C0.137214,53.9165261 9.97374263,44.3801531 21.9628159,44.3801531 L42.9222544,44.3801531 L42.9222544,65.3310158 C42.9222544,77.3286649 33.3858814,87.1651935 21.6626603,87.2595281 L21.6455085,84.8411314 L21.6626603,87.2595281 C21.5940533,87.268104 21.5340221,87.268104 21.473991,87.268104 Z M21.9628159,49.2169466 C12.6151121,49.2169466 4.94827988,56.600775 4.871097,65.6740508 C4.82821763,70.1678093 6.56054438,74.3871398 9.73361812,77.5602135 C12.8723884,80.6989838 17.0402636,82.4227346 21.473991,82.4227346 L21.611205,82.4227346 C30.6930566,82.3455518 38.076885,74.6787195 38.076885,65.3224399 L38.076885,49.2169466 L21.9628159,49.2169466 L21.9628159,49.2169466 Z M42.9136785,42.9222544 L22.0142711,42.9222544 C16.4142247,42.9222544 11.0628787,40.8468926 6.94645875,37.0735076 C2.76143175,33.2400915 0.317307375,28.0688389 0.060031125,22.5116719 C-0.214396875,16.5771664 1.87811663,10.9599683 5.968809,6.68060663 C7.94983612,4.60524488 10.2824741,2.97582863 12.898116,1.82666138 C15.6080925,0.63461475 18.4981624,0.0343035 21.4825669,0.0343035 C27.2112514,0.0343035 32.5969009,2.264031 36.6447139,6.311844 C40.6925269,10.359657 42.9222544,15.7453065 42.9222544,21.473991 L42.9136785,42.9222544 Z M21.4825669,4.871097 C16.9030496,4.871097 12.6322639,6.69775837 9.467766,10.016622 C6.30326813,13.3354856 4.68242775,17.6834542 4.89682463,22.2801232 C5.09406975,26.550909 6.98933813,30.5386909 10.222443,33.5059436 C13.446972,36.4646205 17.6405749,38.0854609 22.022847,38.0854609 L38.0940368,38.0854609 L38.0940368,21.4825669 C38.0940368,17.0488395 36.3702859,12.8723884 33.2315156,9.742194 C30.0841695,6.60342375 25.9162943,4.871097 21.4825669,4.871097 Z M65.8284165,87.268104 L65.6311714,87.268104 C53.9165261,87.1651935 44.3801531,77.3286649 44.3801531,65.3395916 L44.3801531,44.3801531 L65.3310157,44.3801531 C77.3286649,44.3801531 87.1651935,53.9165261 87.2595281,65.6397472 C87.3024075,71.4370387 85.07268,76.8912952 80.9734117,80.9819876 C76.9255987,85.0383765 71.5485251,87.268104 65.8284165,87.268104 L65.8284165,87.268104 Z M49.2169466,49.2169466 L49.2169466,65.3310158 C49.2169466,74.6787195 56.600775,82.3455517 65.6740508,82.4313105 L65.8284165,82.4313105 C70.2621439,82.4313105 74.4214433,80.7075596 77.5687894,77.5687894 C80.7418631,74.3957156 82.4741899,70.1763851 82.4398864,65.6826266 C82.3627035,56.600775 74.6958712,49.2169466 65.3481675,49.2169466 L49.2169466,49.2169466 L49.2169466,49.2169466 Z" id="形状"></path>
                            </g>
                        </g>
                        <text id="销售和-采购计划" font-family="PingFangSC-Medium, PingFang SC" font-size="28" font-weight="400" line-spacing="37.25568" fill="#FFFFFF">
                            <tspan x="196.93536" y="211.66432">销售和</tspan>
                            <tspan x="182.93536" y="248.92">采购计划</tspan>
                        </text>
                        <text id="库存管理-与优化" font-family="PingFangSC-Medium, PingFang SC" font-size="28" font-weight="400" line-spacing="37.25568" fill="#FFFFFF">
                            <tspan x="378.52768" y="211.66432">库存管理</tspan>
                            <tspan x="392.52768" y="248.92">与优化</tspan>
                        </text>
                        <text id="送货与物-流的协同" font-family="PingFangSC-Medium, PingFang SC" font-size="28" font-weight="400" line-spacing="37.25568" fill="#FFFFFF">
                            <tspan x="438.40288" y="396.61216">送货与物</tspan>
                            <tspan x="438.40288" y="433.86784">流的协同</tspan>
                        </text>
                        <text id="订单的-协同管理" font-family="PingFangSC-Medium, PingFang SC" font-size="28" font-weight="400" line-spacing="37.25568" fill="#FFFFFF">
                            <tspan x="138.39072" y="396.61216">订单的</tspan>
                            <tspan x="124.39072" y="433.86784">协同管理</tspan>
                        </text>
                        <text id="由销售计划-驱动的物料-计划" font-family="PingFangSC-Medium, PingFang SC" font-size="26" font-weight="400" line-spacing="31.93344" fill="#FFFFFF">
                            <tspan x="270.998848" y="503.652416">由销售计划</tspan>
                            <tspan x="270.998848" y="535.585856">驱动的物料</tspan>
                            <tspan x="309.998848" y="567.519296">计划</tspan>
                        </text>
                        <path d="M343.2072,3.74128533 L625.316966,166.617435 C628.551569,168.484933 630.544166,171.936213 630.544166,175.671211 L630.544166,501.423509 C630.544166,505.158507 628.551569,508.609787 625.316966,510.477285 L343.2072,673.353435 C339.972597,675.220933 335.987403,675.220933 332.7528,673.353435 L50.643034,510.477285 C47.4084314,508.609787 45.415834,505.158507 45.415834,501.423509 L45.415834,175.671211 C45.415834,171.936213 47.4084314,168.484933 50.643034,166.617435 L332.7528,3.74128533 C335.987403,1.87378664 339.972597,1.87378664 343.2072,3.74128533 Z" id="多边形" stroke="#3DA5FF" stroke-width="1.04544" opacity="0.209077381"></path>
                        <path d="M343.2072,34.8452853 L598.380112,182.169435 C601.614714,184.036933 603.607312,187.488213 603.607312,191.223211 L603.607312,485.871509 C603.607312,489.606507 601.614714,493.057787 598.380112,494.925285 L343.2072,642.249435 C339.972597,644.116933 335.987403,644.116933 332.7528,642.249435 L77.5798882,494.925285 C74.3452855,493.057787 72.3526882,489.606507 72.3526882,485.871509 L72.3526882,191.223211 C72.3526882,187.488213 74.3452855,184.036933 77.5798882,182.169435 L332.7528,34.8452853 C335.987403,32.9777866 339.972597,32.9777866 343.2072,34.8452853 Z" id="多边形" stroke="#3DA5FF" stroke-width="1.04544" opacity="0.59702846"></path>
                    </g>
                </g>
            </g>
        </g>
    </g>
</svg>