<?xml version="1.0" encoding="UTF-8"?>
<svg width="288px" height="27px" viewBox="0 0 288 27" version="1.1" xmlns="http://www.w3.org/2000/svg" xmlns:xlink="http://www.w3.org/1999/xlink">
    <!-- Generator: Sketch 63.1 (92452) - https://sketch.com -->
    <title>昊链供应链数字管理平台的价值</title>
    <desc>Created with Sketch.</desc>
    <defs>
        <linearGradient x1="100%" y1="50.2122755%" x2="0%" y2="50.1740248%" id="linearGradient-1">
            <stop stop-color="#011635" stop-opacity="0" offset="0%"></stop>
            <stop stop-color="#011635" stop-opacity="0" offset="0%"></stop>
            <stop stop-color="#2D7BFA" offset="50.3716106%"></stop>
            <stop stop-color="#011635" stop-opacity="0" offset="100%"></stop>
        </linearGradient>
    </defs>
    <g id="页面-1" stroke="none" stroke-width="1" fill="none" fill-rule="evenodd">
        <g id="首页-移动端" transform="translate(-231.000000, -1011.000000)" fill="url(#linearGradient-1)">
            <g id="昊链供应链数字管理平台的价值" transform="translate(-11.000000, 924.000000)">
                <path d="M242.445543,99.5052272 C240.348386,93.167623 245.872427,86.321616 254.439635,87.0540389 C264.660316,87.9278193 257.487848,95.3582491 273.287495,100.23765 C282.591484,103.110945 308.676921,103.009138 321.263864,100.23765 C330.977365,98.0989754 333.257956,95.843113 336.68484,96.5755359 C342.443718,97.8067387 326.347646,109.458121 302.416005,112.688838 C269.860611,117.083375 245.872427,109.861264 242.445543,99.5052272 Z M529.554457,99.5052272 C526.127573,109.861264 502.139389,117.083375 469.583995,112.688838 C445.652354,109.458121 429.556282,97.8067387 435.31516,96.5755359 C438.742044,95.843113 441.022635,98.0989754 450.736136,100.23765 C463.323079,103.009138 489.408516,103.110945 498.712505,100.23765 C514.512152,95.3582491 507.339684,87.9278193 517.560365,87.0540389 C526.127573,86.321616 531.651614,93.167623 529.554457,99.5052272 Z M363.066165,100.080461 C364.572175,98.9063567 364.842301,97.1085822 365.600967,98.3544027 C366.247429,99.4159699 365.663492,103.904541 360.915861,106.319566 C355.180723,109.236916 349.459022,108.417007 347.55997,107.611998 C345.660917,106.80699 345.506807,104.828892 347.55997,103.989461 C349.613132,103.15003 351.696698,103.040066 355.726026,102.719557 C359.755355,102.399049 361.560155,101.254566 363.066165,100.080461 Z M409.874808,100.080461 C411.380817,101.254566 413.185617,102.399049 417.214946,102.719557 C421.244275,103.040066 423.32784,103.15003 425.381003,103.989461 C427.434165,104.828892 427.280055,106.80699 425.381003,107.611998 C423.48195,108.417007 417.76025,109.236916 412.025111,106.319566 C407.27748,103.904541 406.693543,99.4159699 407.340005,98.3544027 C408.098671,97.1085822 408.368798,98.9063567 409.874808,100.080461 Z M378.258019,97.9326437 C378.807775,97.9326437 379.25344,98.3783087 379.25344,98.9280644 C379.25344,98.9314573 379.253423,98.9348501 379.253378,98.9382427 C379.210668,103.114927 378.915561,105.57892 378.368056,106.330223 C377.482926,107.544825 376.35136,107.699661 375.489297,107.699661 C374.627233,107.699661 373.813678,107.103383 374.194478,106.330223 C374.575277,105.557062 376.081009,106.002583 376.712118,104.189374 C377.084271,103.120161 377.26942,101.364982 377.267565,98.9238385 C377.267162,98.3768325 377.710261,97.9330596 378.257267,97.932644 C378.257518,97.9326438 378.257769,97.9326437 378.258019,97.9326437 Z M386.106324,97.9326437 L386.107811,97.9326437 C386.660095,97.9326437 387.107811,98.3803589 387.107811,98.9326437 L387.107811,105.877534 C387.107811,106.429819 386.660095,106.877534 386.107811,106.877534 L386.106324,106.877534 C385.554039,106.877534 385.106324,106.429819 385.106324,105.877534 L385.106324,98.9326437 C385.106324,98.3803589 385.554039,97.9326437 386.106324,97.9326437 Z M394.113015,97.9326437 C393.56326,97.9326437 393.117595,98.3783087 393.117595,98.9280644 C393.117595,98.9314573 393.117612,98.9348501 393.117657,98.9382427 C393.160367,103.114927 393.455474,105.57892 394.002979,106.330223 C394.888109,107.544825 396.019675,107.699661 396.881738,107.699661 C397.743802,107.699661 398.557357,107.103383 398.176557,106.330223 C397.795758,105.557062 396.290026,106.002583 395.658917,104.189374 C395.286764,103.120161 395.101615,101.364982 395.10347,98.9238385 C395.103873,98.3768325 394.660774,97.9330596 394.113768,97.932644 C394.113517,97.9326438 394.113266,97.9326437 394.113015,97.9326437 Z"></path>
            </g>
        </g>
    </g>
</svg>