<?xml version="1.0" encoding="UTF-8"?>
<svg width="288px" height="27px" viewBox="0 0 288 27" version="1.1" xmlns="http://www.w3.org/2000/svg" xmlns:xlink="http://www.w3.org/1999/xlink">
    <!-- Generator: Sketch 63.1 (92452) - https://sketch.com -->
    <title>数字化转型方案效益</title>
    <desc>Created with Sketch.</desc>
    <defs>
        <linearGradient x1="100%" y1="65.0363674%" x2="0%" y2="65.0363674%" id="linearGradient-1">
            <stop stop-color="#FFFFFF" stop-opacity="0" offset="0%"></stop>
            <stop stop-color="#2D7BFA" offset="48.9952646%"></stop>
            <stop stop-color="#FFFFFF" stop-opacity="0" offset="100%"></stop>
        </linearGradient>
    </defs>
    <g id="页面-1" stroke="none" stroke-width="1" fill="none" fill-rule="evenodd">
        <g id="首页-移动端" transform="translate(-231.000000, -4041.000000)" fill="url(#linearGradient-1)">
            <g id="数字化转型方案效益" transform="translate(-1.000000, 3945.000000)">
                <g id="标题" transform="translate(214.000000, 54.000000)">
                    <path d="M18.4455431,54.5052272 C16.3483863,48.167623 21.8724266,41.321616 30.4396354,42.0540389 C40.6603155,42.9278193 33.4878483,50.3582491 49.2874948,55.2376501 C58.5914835,58.1109449 84.6769209,58.0091381 97.2638641,55.2376501 C106.977365,53.0989754 109.257956,50.843113 112.68484,51.5755359 C118.443718,52.8067387 102.347646,64.4581212 78.4160047,67.6888384 C45.8606113,72.0833755 21.8724266,64.8612637 18.4455431,54.5052272 Z M305.554457,54.5052272 C302.127573,64.8612637 278.139389,72.0833755 245.583995,67.6888384 C221.652354,64.4581212 205.556282,52.8067387 211.31516,51.5755359 C214.742044,50.843113 217.022635,53.0989754 226.736136,55.2376501 C239.323079,58.0091381 265.408516,58.1109449 274.712505,55.2376501 C290.512152,50.3582491 283.339684,42.9278193 293.560365,42.0540389 C302.127573,41.321616 307.651614,48.167623 305.554457,54.5052272 Z M139.066165,55.0804613 C140.572175,53.9063567 140.842301,52.1085822 141.600967,53.3544027 C142.247429,54.4159699 141.663492,58.9045414 136.915861,61.3195663 C131.180723,64.2369164 125.459022,63.4170065 123.55997,62.6119982 C121.660917,61.8069899 121.506807,59.8288918 123.55997,58.9894608 C125.613132,58.1500299 127.696698,58.0400663 131.726026,57.7195575 C135.755355,57.3990487 137.560155,56.2545659 139.066165,55.0804613 Z M185.874808,55.0804613 C187.380817,56.2545659 189.185617,57.3990487 193.214946,57.7195575 C197.244275,58.0400663 199.32784,58.1500299 201.381003,58.9894608 C203.434165,59.8288918 203.280055,61.8069899 201.381003,62.6119982 C199.48195,63.4170065 193.76025,64.2369164 188.025111,61.3195663 C183.27748,58.9045414 182.693543,54.4159699 183.340005,53.3544027 C184.098671,52.1085822 184.368798,53.9063567 185.874808,55.0804613 Z M154.258019,52.9326437 C154.807775,52.9326437 155.25344,53.3783087 155.25344,53.9280644 C155.25344,53.9314573 155.253423,53.9348501 155.253378,53.9382427 C155.210668,58.1149269 154.915561,60.5789202 154.368056,61.3302228 C153.482926,62.5448249 152.35136,62.6996607 151.489297,62.6996607 C150.627233,62.6996607 149.813678,62.1033833 150.194478,61.3302228 C150.575277,60.5570622 152.081009,61.0025827 152.712118,59.1893744 C153.084271,58.1201611 153.26942,56.3649824 153.267565,53.9238385 C153.267162,53.3768325 153.710261,52.9330596 154.257267,52.932644 C154.257518,52.9326438 154.257769,52.9326437 154.258019,52.9326437 Z M162.106324,52.9326437 L162.107811,52.9326437 C162.660095,52.9326437 163.107811,53.3803589 163.107811,53.9326437 L163.107811,60.8775339 C163.107811,61.4298187 162.660095,61.8775339 162.107811,61.8775339 L162.106324,61.8775339 C161.554039,61.8775339 161.106324,61.4298187 161.106324,60.8775339 L161.106324,53.9326437 C161.106324,53.3803589 161.554039,52.9326437 162.106324,52.9326437 Z M170.113015,52.9326437 C169.56326,52.9326437 169.117595,53.3783087 169.117595,53.9280644 C169.117595,53.9314573 169.117612,53.9348501 169.117657,53.9382427 C169.160367,58.1149269 169.455474,60.5789202 170.002979,61.3302228 C170.888109,62.544825 172.019675,62.6996607 172.881738,62.6996607 C173.743802,62.6996607 174.557357,62.1033833 174.176557,61.3302228 C173.795758,60.5570622 172.290026,61.0025827 171.658917,59.1893744 C171.286764,58.1201611 171.101615,56.3649824 171.10347,53.9238385 C171.103873,53.3768325 170.660774,52.9330596 170.113768,52.932644 C170.113517,52.9326438 170.113266,52.9326437 170.113015,52.9326437 Z" id="数字化转型方案效益"></path>
                </g>
            </g>
        </g>
    </g>
</svg>