<?xml version="1.0" encoding="UTF-8"?>
<svg width="288px" height="27px" viewBox="0 0 288 27" version="1.1" xmlns="http://www.w3.org/2000/svg" xmlns:xlink="http://www.w3.org/1999/xlink">
    <!-- Generator: Sketch 63.1 (92452) - https://sketch.com -->
    <title>提供高质量供应链解决方案与落地服务</title>
    <desc>Created with Sketch.</desc>
    <defs>
        <linearGradient x1="100%" y1="65.0363674%" x2="0%" y2="65.0363674%" id="linearGradient-1">
            <stop stop-color="#FFFFFF" stop-opacity="0" offset="0%"></stop>
            <stop stop-color="#2D7BFA" offset="48.9952646%"></stop>
            <stop stop-color="#FFFFFF" stop-opacity="0" offset="100%"></stop>
        </linearGradient>
    </defs>
    <g id="页面-1" stroke="none" stroke-width="1" fill="none" fill-rule="evenodd">
        <g id="首页-移动端" transform="translate(-231.000000, -1871.000000)" fill="url(#linearGradient-1)">
            <g id="提供高质量供应链解决方案与落地服务" transform="translate(-90.000000, 1774.000000)">
                <path d="M321.445543,109.505227 C319.348386,103.167623 324.872427,96.321616 333.439635,97.0540389 C343.660316,97.9278193 336.487848,105.358249 352.287495,110.23765 C361.591484,113.110945 387.676921,113.009138 400.263864,110.23765 C409.977365,108.098975 412.257956,105.843113 415.68484,106.575536 C421.443718,107.806739 405.347646,119.458121 381.416005,122.688838 C348.860611,127.083375 324.872427,119.861264 321.445543,109.505227 Z M608.554457,109.505227 C605.127573,119.861264 581.139389,127.083375 548.583995,122.688838 C524.652354,119.458121 508.556282,107.806739 514.31516,106.575536 C517.742044,105.843113 520.022635,108.098975 529.736136,110.23765 C542.323079,113.009138 568.408516,113.110945 577.712505,110.23765 C593.512152,105.358249 586.339684,97.9278193 596.560365,97.0540389 C605.127573,96.321616 610.651614,103.167623 608.554457,109.505227 Z M442.066165,110.080461 C443.572175,108.906357 443.842301,107.108582 444.600967,108.354403 C445.247429,109.41597 444.663492,113.904541 439.915861,116.319566 C434.180723,119.236916 428.459022,118.417007 426.55997,117.611998 C424.660917,116.80699 424.506807,114.828892 426.55997,113.989461 C428.613132,113.15003 430.696698,113.040066 434.726026,112.719557 C438.755355,112.399049 440.560155,111.254566 442.066165,110.080461 Z M488.874808,110.080461 C490.380817,111.254566 492.185617,112.399049 496.214946,112.719557 C500.244275,113.040066 502.32784,113.15003 504.381003,113.989461 C506.434165,114.828892 506.280055,116.80699 504.381003,117.611998 C502.48195,118.417007 496.76025,119.236916 491.025111,116.319566 C486.27748,113.904541 485.693543,109.41597 486.340005,108.354403 C487.098671,107.108582 487.368798,108.906357 488.874808,110.080461 Z M457.258019,107.932644 C457.807775,107.932644 458.25344,108.378309 458.25344,108.928064 C458.25344,108.931457 458.253423,108.93485 458.253378,108.938243 C458.210668,113.114927 457.915561,115.57892 457.368056,116.330223 C456.482926,117.544825 455.35136,117.699661 454.489297,117.699661 C453.627233,117.699661 452.813678,117.103383 453.194478,116.330223 C453.575277,115.557062 455.081009,116.002583 455.712118,114.189374 C456.084271,113.120161 456.26942,111.364982 456.267565,108.923838 C456.267162,108.376832 456.710261,107.93306 457.257267,107.932644 C457.257518,107.932644 457.257769,107.932644 457.258019,107.932644 Z M465.106324,107.932644 L465.107811,107.932644 C465.660095,107.932644 466.107811,108.380359 466.107811,108.932644 L466.107811,115.877534 C466.107811,116.429819 465.660095,116.877534 465.107811,116.877534 L465.106324,116.877534 C464.554039,116.877534 464.106324,116.429819 464.106324,115.877534 L464.106324,108.932644 C464.106324,108.380359 464.554039,107.932644 465.106324,107.932644 Z M473.113015,107.932644 C472.56326,107.932644 472.117595,108.378309 472.117595,108.928064 C472.117595,108.931457 472.117612,108.93485 472.117657,108.938243 C472.160367,113.114927 472.455474,115.57892 473.002979,116.330223 C473.888109,117.544825 475.019675,117.699661 475.881738,117.699661 C476.743802,117.699661 477.557357,117.103383 477.176557,116.330223 C476.795758,115.557062 475.290026,116.002583 474.658917,114.189374 C474.286764,113.120161 474.101615,111.364982 474.10347,108.923838 C474.103873,108.376832 473.660774,107.93306 473.113768,107.932644 C473.113517,107.932644 473.113266,107.932644 473.113015,107.932644 Z"></path>
            </g>
        </g>
    </g>
</svg>