<?xml version="1.0" encoding="UTF-8"?>
<svg width="288px" height="27px" viewBox="0 0 288 27" version="1.1" xmlns="http://www.w3.org/2000/svg" xmlns:xlink="http://www.w3.org/1999/xlink">
    <!-- Generator: Sketch 63.1 (92452) - https://sketch.com -->
    <title>成功案例</title>
    <desc>Created with Sketch.</desc>
    <defs>
        <linearGradient x1="100%" y1="50.1321556%" x2="0%" y2="50.1321658%" id="linearGradient-1">
            <stop stop-color="#2B3D57" stop-opacity="0" offset="0%"></stop>
            <stop stop-color="#2D7BFA" offset="48.9952646%"></stop>
            <stop stop-color="#2A3B53" stop-opacity="0" offset="100%"></stop>
        </linearGradient>
    </defs>
    <g id="页面-1" stroke="none" stroke-width="1" fill="none" fill-rule="evenodd">
        <g id="首页-移动端" transform="translate(-231.000000, -4875.000000)" fill="url(#linearGradient-1)">
            <g id="成功案例" transform="translate(0.000000, 4775.000000)">
                <path d="M231.445543,112.505227 C229.348386,106.167623 234.872427,99.321616 243.439635,100.054039 C253.660316,100.927819 246.487848,108.358249 262.287495,113.23765 C271.591484,116.110945 297.676921,116.009138 310.263864,113.23765 C319.977365,111.098975 322.257956,108.843113 325.68484,109.575536 C331.443718,110.806739 315.347646,122.458121 291.416005,125.688838 C258.860611,130.083375 234.872427,122.861264 231.445543,112.505227 Z M518.554457,112.505227 C515.127573,122.861264 491.139389,130.083375 458.583995,125.688838 C434.652354,122.458121 418.556282,110.806739 424.31516,109.575536 C427.742044,108.843113 430.022635,111.098975 439.736136,113.23765 C452.323079,116.009138 478.408516,116.110945 487.712505,113.23765 C503.512152,108.358249 496.339684,100.927819 506.560365,100.054039 C515.127573,99.321616 520.651614,106.167623 518.554457,112.505227 Z M352.066165,113.080461 C353.572175,111.906357 353.842301,110.108582 354.600967,111.354403 C355.247429,112.41597 354.663492,116.904541 349.915861,119.319566 C344.180723,122.236916 338.459022,121.417007 336.55997,120.611998 C334.660917,119.80699 334.506807,117.828892 336.55997,116.989461 C338.613132,116.15003 340.696698,116.040066 344.726026,115.719557 C348.755355,115.399049 350.560155,114.254566 352.066165,113.080461 Z M398.874808,113.080461 C400.380817,114.254566 402.185617,115.399049 406.214946,115.719557 C410.244275,116.040066 412.32784,116.15003 414.381003,116.989461 C416.434165,117.828892 416.280055,119.80699 414.381003,120.611998 C412.48195,121.417007 406.76025,122.236916 401.025111,119.319566 C396.27748,116.904541 395.693543,112.41597 396.340005,111.354403 C397.098671,110.108582 397.368798,111.906357 398.874808,113.080461 Z M367.258019,110.932644 C367.807775,110.932644 368.25344,111.378309 368.25344,111.928064 C368.25344,111.931457 368.253423,111.93485 368.253378,111.938243 C368.210668,116.114927 367.915561,118.57892 367.368056,119.330223 C366.482926,120.544825 365.35136,120.699661 364.489297,120.699661 C363.627233,120.699661 362.813678,120.103383 363.194478,119.330223 C363.575277,118.557062 365.081009,119.002583 365.712118,117.189374 C366.084271,116.120161 366.26942,114.364982 366.267565,111.923838 C366.267162,111.376832 366.710261,110.93306 367.257267,110.932644 C367.257518,110.932644 367.257769,110.932644 367.258019,110.932644 Z M375.106324,110.932644 L375.107811,110.932644 C375.660095,110.932644 376.107811,111.380359 376.107811,111.932644 L376.107811,118.877534 C376.107811,119.429819 375.660095,119.877534 375.107811,119.877534 L375.106324,119.877534 C374.554039,119.877534 374.106324,119.429819 374.106324,118.877534 L374.106324,111.932644 C374.106324,111.380359 374.554039,110.932644 375.106324,110.932644 Z M383.113015,110.932644 C382.56326,110.932644 382.117595,111.378309 382.117595,111.928064 C382.117595,111.931457 382.117612,111.93485 382.117657,111.938243 C382.160367,116.114927 382.455474,118.57892 383.002979,119.330223 C383.888109,120.544825 385.019675,120.699661 385.881738,120.699661 C386.743802,120.699661 387.557357,120.103383 387.176557,119.330223 C386.795758,118.557062 385.290026,119.002583 384.658917,117.189374 C384.286764,116.120161 384.101615,114.364982 384.10347,111.923838 C384.103873,111.376832 383.660774,110.93306 383.113768,110.932644 C383.113517,110.932644 383.113266,110.932644 383.113015,110.932644 Z"></path>
            </g>
        </g>
    </g>
</svg>