<?xml version="1.0" encoding="UTF-8"?>
<svg width="288px" height="27px" viewBox="0 0 288 27" version="1.1" xmlns="http://www.w3.org/2000/svg" xmlns:xlink="http://www.w3.org/1999/xlink">
    <!-- Generator: Sketch 63.1 (92452) - https://sketch.com -->
    <title>供应链数字化转型，不只是技术的升级</title>
    <desc>Created with Sketch.</desc>
    <defs>
        <linearGradient x1="100%" y1="65.0363674%" x2="0%" y2="65.0363674%" id="linearGradient-1">
            <stop stop-color="#011635" stop-opacity="0" offset="0%"></stop>
            <stop stop-color="#2D7BFA" offset="48.9952646%"></stop>
            <stop stop-color="#011635" stop-opacity="0" offset="100%"></stop>
        </linearGradient>
    </defs>
    <g id="页面-1" stroke="none" stroke-width="1" fill="none" fill-rule="evenodd">
        <g id="首页-移动端" transform="translate(-231.000000, -3233.000000)" fill="url(#linearGradient-1)">
            <g id="供应链数字化转型，不只是技术的升级" transform="translate(0.000000, 3135.000000)">
                <path d="M231.445543,110.505227 C229.348386,104.167623 234.872427,97.321616 243.439635,98.0540389 C253.660316,98.9278193 246.487848,106.358249 262.287495,111.23765 C271.591484,114.110945 297.676921,114.009138 310.263864,111.23765 C319.977365,109.098975 322.257956,106.843113 325.68484,107.575536 C331.443718,108.806739 315.347646,120.458121 291.416005,123.688838 C258.860611,128.083375 234.872427,120.861264 231.445543,110.505227 Z M518.554457,110.505227 C515.127573,120.861264 491.139389,128.083375 458.583995,123.688838 C434.652354,120.458121 418.556282,108.806739 424.31516,107.575536 C427.742044,106.843113 430.022635,109.098975 439.736136,111.23765 C452.323079,114.009138 478.408516,114.110945 487.712505,111.23765 C503.512152,106.358249 496.339684,98.9278193 506.560365,98.0540389 C515.127573,97.321616 520.651614,104.167623 518.554457,110.505227 Z M352.066165,111.080461 C353.572175,109.906357 353.842301,108.108582 354.600967,109.354403 C355.247429,110.41597 354.663492,114.904541 349.915861,117.319566 C344.180723,120.236916 338.459022,119.417007 336.55997,118.611998 C334.660917,117.80699 334.506807,115.828892 336.55997,114.989461 C338.613132,114.15003 340.696698,114.040066 344.726026,113.719557 C348.755355,113.399049 350.560155,112.254566 352.066165,111.080461 Z M398.874808,111.080461 C400.380817,112.254566 402.185617,113.399049 406.214946,113.719557 C410.244275,114.040066 412.32784,114.15003 414.381003,114.989461 C416.434165,115.828892 416.280055,117.80699 414.381003,118.611998 C412.48195,119.417007 406.76025,120.236916 401.025111,117.319566 C396.27748,114.904541 395.693543,110.41597 396.340005,109.354403 C397.098671,108.108582 397.368798,109.906357 398.874808,111.080461 Z M367.258019,108.932644 C367.807775,108.932644 368.25344,109.378309 368.25344,109.928064 C368.25344,109.931457 368.253423,109.93485 368.253378,109.938243 C368.210668,114.114927 367.915561,116.57892 367.368056,117.330223 C366.482926,118.544825 365.35136,118.699661 364.489297,118.699661 C363.627233,118.699661 362.813678,118.103383 363.194478,117.330223 C363.575277,116.557062 365.081009,117.002583 365.712118,115.189374 C366.084271,114.120161 366.26942,112.364982 366.267565,109.923838 C366.267162,109.376832 366.710261,108.93306 367.257267,108.932644 C367.257518,108.932644 367.257769,108.932644 367.258019,108.932644 Z M375.106324,108.932644 L375.107811,108.932644 C375.660095,108.932644 376.107811,109.380359 376.107811,109.932644 L376.107811,116.877534 C376.107811,117.429819 375.660095,117.877534 375.107811,117.877534 L375.106324,117.877534 C374.554039,117.877534 374.106324,117.429819 374.106324,116.877534 L374.106324,109.932644 C374.106324,109.380359 374.554039,108.932644 375.106324,108.932644 Z M383.113015,108.932644 C382.56326,108.932644 382.117595,109.378309 382.117595,109.928064 C382.117595,109.931457 382.117612,109.93485 382.117657,109.938243 C382.160367,114.114927 382.455474,116.57892 383.002979,117.330223 C383.888109,118.544825 385.019675,118.699661 385.881738,118.699661 C386.743802,118.699661 387.557357,118.103383 387.176557,117.330223 C386.795758,116.557062 385.290026,117.002583 384.658917,115.189374 C384.286764,114.120161 384.101615,112.364982 384.10347,109.923838 C384.103873,109.376832 383.660774,108.93306 383.113768,108.932644 C383.113517,108.932644 383.113266,108.932644 383.113015,108.932644 Z"></path>
            </g>
        </g>
    </g>
</svg>