<?xml version="1.0" encoding="UTF-8"?>
<svg width="288px" height="27px" viewBox="0 0 288 27" version="1.1" xmlns="http://www.w3.org/2000/svg" xmlns:xlink="http://www.w3.org/1999/xlink">
    <!-- Generator: Sketch 63.1 (92452) - https://sketch.com -->
    <title>工贸企业发展机会和转型方向</title>
    <desc>Created with Sketch.</desc>
    <defs>
        <linearGradient x1="100%" y1="65.0363674%" x2="-1.03320745%" y2="65.0363674%" id="linearGradient-1">
            <stop stop-color="#011635" stop-opacity="0" offset="0%"></stop>
            <stop stop-color="#2D7BFA" offset="48.9952646%"></stop>
            <stop stop-color="#011635" stop-opacity="0" offset="100%"></stop>
        </linearGradient>
    </defs>
    <g id="页面-1" stroke="none" stroke-width="1" fill="none" fill-rule="evenodd">
        <g id="首页-移动端" transform="translate(-231.000000, -617.000000)" fill="url(#linearGradient-1)">
            <g id="编组-9" transform="translate(-271.000000, 530.000000)">
                <path d="M502.445543,99.5052272 C500.348386,93.167623 505.872427,86.321616 514.439635,87.0540389 C524.660316,87.9278193 517.487848,95.3582491 533.287495,100.23765 C542.591484,103.110945 568.676921,103.009138 581.263864,100.23765 C590.977365,98.0989754 593.257956,95.843113 596.68484,96.5755359 C602.443718,97.8067387 586.347646,109.458121 562.416005,112.688838 C529.860611,117.083375 505.872427,109.861264 502.445543,99.5052272 Z M789.554457,99.5052272 C786.127573,109.861264 762.139389,117.083375 729.583995,112.688838 C705.652354,109.458121 689.556282,97.8067387 695.31516,96.5755359 C698.742044,95.843113 701.022635,98.0989754 710.736136,100.23765 C723.323079,103.009138 749.408516,103.110945 758.712505,100.23765 C774.512152,95.3582491 767.339684,87.9278193 777.560365,87.0540389 C786.127573,86.321616 791.651614,93.167623 789.554457,99.5052272 Z M623.066165,100.080461 C624.572175,98.9063567 624.842301,97.1085822 625.600967,98.3544027 C626.247429,99.4159699 625.663492,103.904541 620.915861,106.319566 C615.180723,109.236916 609.459022,108.417007 607.55997,107.611998 C605.660917,106.80699 605.506807,104.828892 607.55997,103.989461 C609.613132,103.15003 611.696698,103.040066 615.726026,102.719557 C619.755355,102.399049 621.560155,101.254566 623.066165,100.080461 Z M669.874808,100.080461 C671.380817,101.254566 673.185617,102.399049 677.214946,102.719557 C681.244275,103.040066 683.32784,103.15003 685.381003,103.989461 C687.434165,104.828892 687.280055,106.80699 685.381003,107.611998 C683.48195,108.417007 677.76025,109.236916 672.025111,106.319566 C667.27748,103.904541 666.693543,99.4159699 667.340005,98.3544027 C668.098671,97.1085822 668.368798,98.9063567 669.874808,100.080461 Z M638.258019,97.9326437 C638.807775,97.9326437 639.25344,98.3783087 639.25344,98.9280644 C639.25344,98.9314573 639.253423,98.9348501 639.253378,98.9382427 C639.210668,103.114927 638.915561,105.57892 638.368056,106.330223 C637.482926,107.544825 636.35136,107.699661 635.489297,107.699661 C634.627233,107.699661 633.813678,107.103383 634.194478,106.330223 C634.575277,105.557062 636.081009,106.002583 636.712118,104.189374 C637.084271,103.120161 637.26942,101.364982 637.267565,98.9238385 C637.267162,98.3768325 637.710261,97.9330596 638.257267,97.932644 C638.257518,97.9326438 638.257769,97.9326437 638.258019,97.9326437 Z M646.106324,97.9326437 L646.107811,97.9326437 C646.660095,97.9326437 647.107811,98.3803589 647.107811,98.9326437 L647.107811,105.877534 C647.107811,106.429819 646.660095,106.877534 646.107811,106.877534 L646.106324,106.877534 C645.554039,106.877534 645.106324,106.429819 645.106324,105.877534 L645.106324,98.9326437 C645.106324,98.3803589 645.554039,97.9326437 646.106324,97.9326437 Z M654.113015,97.9326437 C653.56326,97.9326437 653.117595,98.3783087 653.117595,98.9280644 C653.117595,98.9314573 653.117612,98.9348501 653.117657,98.9382427 C653.160367,103.114927 653.455474,105.57892 654.002979,106.330223 C654.888109,107.544825 656.019675,107.699661 656.881738,107.699661 C657.743802,107.699661 658.557357,107.103383 658.176557,106.330223 C657.795758,105.557062 656.290026,106.002583 655.658917,104.189374 C655.286764,103.120161 655.101615,101.364982 655.10347,98.9238385 C655.103873,98.3768325 654.660774,97.9330596 654.113768,97.932644 C654.113517,97.9326438 654.113266,97.9326437 654.113015,97.9326437 Z" id="工贸企业发展机会和转型方向"></path>
            </g>
        </g>
    </g>
</svg>