<?xml version="1.0" encoding="UTF-8"?>
<svg width="288px" height="27px" viewBox="0 0 288 27" version="1.1" xmlns="http://www.w3.org/2000/svg" xmlns:xlink="http://www.w3.org/1999/xlink">
    <!-- Generator: Sketch 63.1 (92452) - https://sketch.com -->
    <title>提供高效便捷的saas服务</title>
    <desc>Created with Sketch.</desc>
    <defs>
        <linearGradient x1="100%" y1="65.0363674%" x2="0%" y2="65.0363674%" id="linearGradient-1">
            <stop stop-color="#FFFFFF" stop-opacity="0" offset="0%"></stop>
            <stop stop-color="#2D7BFA" offset="48.9952646%"></stop>
            <stop stop-color="#FFFFFF" stop-opacity="0" offset="100%"></stop>
        </linearGradient>
    </defs>
    <g id="页面-1" stroke="none" stroke-width="1" fill="none" fill-rule="evenodd">
        <g id="首页-移动端" transform="translate(-231.000000, -4501.000000)" fill="url(#linearGradient-1)">
            <g id="提供高效便捷的SAAS服务" transform="translate(0.000000, 4405.000000)">
                <path d="M231.445543,108.505227 C229.348386,102.167623 234.872427,95.321616 243.439635,96.0540389 C253.660316,96.9278193 246.487848,104.358249 262.287495,109.23765 C271.591484,112.110945 297.676921,112.009138 310.263864,109.23765 C319.977365,107.098975 322.257956,104.843113 325.68484,105.575536 C331.443718,106.806739 315.347646,118.458121 291.416005,121.688838 C258.860611,126.083375 234.872427,118.861264 231.445543,108.505227 Z M518.554457,108.505227 C515.127573,118.861264 491.139389,126.083375 458.583995,121.688838 C434.652354,118.458121 418.556282,106.806739 424.31516,105.575536 C427.742044,104.843113 430.022635,107.098975 439.736136,109.23765 C452.323079,112.009138 478.408516,112.110945 487.712505,109.23765 C503.512152,104.358249 496.339684,96.9278193 506.560365,96.0540389 C515.127573,95.321616 520.651614,102.167623 518.554457,108.505227 Z M352.066165,109.080461 C353.572175,107.906357 353.842301,106.108582 354.600967,107.354403 C355.247429,108.41597 354.663492,112.904541 349.915861,115.319566 C344.180723,118.236916 338.459022,117.417007 336.55997,116.611998 C334.660917,115.80699 334.506807,113.828892 336.55997,112.989461 C338.613132,112.15003 340.696698,112.040066 344.726026,111.719557 C348.755355,111.399049 350.560155,110.254566 352.066165,109.080461 Z M398.874808,109.080461 C400.380817,110.254566 402.185617,111.399049 406.214946,111.719557 C410.244275,112.040066 412.32784,112.15003 414.381003,112.989461 C416.434165,113.828892 416.280055,115.80699 414.381003,116.611998 C412.48195,117.417007 406.76025,118.236916 401.025111,115.319566 C396.27748,112.904541 395.693543,108.41597 396.340005,107.354403 C397.098671,106.108582 397.368798,107.906357 398.874808,109.080461 Z M367.258019,106.932644 C367.807775,106.932644 368.25344,107.378309 368.25344,107.928064 C368.25344,107.931457 368.253423,107.93485 368.253378,107.938243 C368.210668,112.114927 367.915561,114.57892 367.368056,115.330223 C366.482926,116.544825 365.35136,116.699661 364.489297,116.699661 C363.627233,116.699661 362.813678,116.103383 363.194478,115.330223 C363.575277,114.557062 365.081009,115.002583 365.712118,113.189374 C366.084271,112.120161 366.26942,110.364982 366.267565,107.923838 C366.267162,107.376832 366.710261,106.93306 367.257267,106.932644 C367.257518,106.932644 367.257769,106.932644 367.258019,106.932644 Z M375.106324,106.932644 L375.107811,106.932644 C375.660095,106.932644 376.107811,107.380359 376.107811,107.932644 L376.107811,114.877534 C376.107811,115.429819 375.660095,115.877534 375.107811,115.877534 L375.106324,115.877534 C374.554039,115.877534 374.106324,115.429819 374.106324,114.877534 L374.106324,107.932644 C374.106324,107.380359 374.554039,106.932644 375.106324,106.932644 Z M383.113015,106.932644 C382.56326,106.932644 382.117595,107.378309 382.117595,107.928064 C382.117595,107.931457 382.117612,107.93485 382.117657,107.938243 C382.160367,112.114927 382.455474,114.57892 383.002979,115.330223 C383.888109,116.544825 385.019675,116.699661 385.881738,116.699661 C386.743802,116.699661 387.557357,116.103383 387.176557,115.330223 C386.795758,114.557062 385.290026,115.002583 384.658917,113.189374 C384.286764,112.120161 384.101615,110.364982 384.10347,107.923838 C384.103873,107.376832 383.660774,106.93306 383.113768,106.932644 C383.113517,106.932644 383.113266,106.932644 383.113015,106.932644 Z" id="提供高效便捷的saas服务"></path>
            </g>
        </g>
    </g>
</svg>