<?xml version="1.0" encoding="UTF-8"?>
<svg width="288px" height="27px" viewBox="0 0 288 27" version="1.1" xmlns="http://www.w3.org/2000/svg" xmlns:xlink="http://www.w3.org/1999/xlink">
    <!-- Generator: Sketch 63.1 (92452) - https://sketch.com -->
    <title>形状结合</title>
    <desc>Created with Sketch.</desc>
    <defs>
        <linearGradient x1="100%" y1="65.0363674%" x2="-1.03320745%" y2="65.0363674%" id="linearGradient-1">
            <stop stop-color="#011635" stop-opacity="0" offset="0%"></stop>
            <stop stop-color="#2D7BFA" offset="48.9952646%"></stop>
            <stop stop-color="#011635" stop-opacity="0" offset="100%"></stop>
        </linearGradient>
    </defs>
    <g id="页面-1" stroke="none" stroke-width="1" fill="none" fill-rule="evenodd">
        <g id="首页-移动端" transform="translate(-231.000000, -616.000000)" fill="url(#linearGradient-1)">
            <g id="编组-9" transform="translate(-271.000000, 530.000000)">
                <path d="M502.445543,98.5052272 C500.348386,92.167623 505.872427,85.321616 514.439635,86.0540389 C524.660316,86.9278193 517.487848,94.3582491 533.287495,99.2376501 C542.591484,102.110945 568.676921,102.009138 581.263864,99.2376501 C590.977365,97.0989754 593.257956,94.843113 596.68484,95.5755359 C602.443718,96.8067387 586.347646,108.458121 562.416005,111.688838 C529.860611,116.083375 505.872427,108.861264 502.445543,98.5052272 Z M789.554457,98.5052272 C786.127573,108.861264 762.139389,116.083375 729.583995,111.688838 C705.652354,108.458121 689.556282,96.8067387 695.31516,95.5755359 C698.742044,94.843113 701.022635,97.0989754 710.736136,99.2376501 C723.323079,102.009138 749.408516,102.110945 758.712505,99.2376501 C774.512152,94.3582491 767.339684,86.9278193 777.560365,86.0540389 C786.127573,85.321616 791.651614,92.167623 789.554457,98.5052272 Z M623.066165,99.0804613 C624.572175,97.9063567 624.842301,96.1085822 625.600967,97.3544027 C626.247429,98.4159699 625.663492,102.904541 620.915861,105.319566 C615.180723,108.236916 609.459022,107.417007 607.55997,106.611998 C605.660917,105.80699 605.506807,103.828892 607.55997,102.989461 C609.613132,102.15003 611.696698,102.040066 615.726026,101.719557 C619.755355,101.399049 621.560155,100.254566 623.066165,99.0804613 Z M669.874808,99.0804613 C671.380817,100.254566 673.185617,101.399049 677.214946,101.719557 C681.244275,102.040066 683.32784,102.15003 685.381003,102.989461 C687.434165,103.828892 687.280055,105.80699 685.381003,106.611998 C683.48195,107.417007 677.76025,108.236916 672.025111,105.319566 C667.27748,102.904541 666.693543,98.4159699 667.340005,97.3544027 C668.098671,96.1085822 668.368798,97.9063567 669.874808,99.0804613 Z M638.258019,96.9326437 C638.807775,96.9326437 639.25344,97.3783087 639.25344,97.9280644 C639.25344,97.9314573 639.253423,97.9348501 639.253378,97.9382427 C639.210668,102.114927 638.915561,104.57892 638.368056,105.330223 C637.482926,106.544825 636.35136,106.699661 635.489297,106.699661 C634.627233,106.699661 633.813678,106.103383 634.194478,105.330223 C634.575277,104.557062 636.081009,105.002583 636.712118,103.189374 C637.084271,102.120161 637.26942,100.364982 637.267565,97.9238385 C637.267162,97.3768325 637.710261,96.9330596 638.257267,96.932644 C638.257518,96.9326438 638.257769,96.9326437 638.258019,96.9326437 Z M646.106324,96.9326437 L646.107811,96.9326437 C646.660095,96.9326437 647.107811,97.3803589 647.107811,97.9326437 L647.107811,104.877534 C647.107811,105.429819 646.660095,105.877534 646.107811,105.877534 L646.106324,105.877534 C645.554039,105.877534 645.106324,105.429819 645.106324,104.877534 L645.106324,97.9326437 C645.106324,97.3803589 645.554039,96.9326437 646.106324,96.9326437 Z M654.113015,96.9326437 C653.56326,96.9326437 653.117595,97.3783087 653.117595,97.9280644 C653.117595,97.9314573 653.117612,97.9348501 653.117657,97.9382427 C653.160367,102.114927 653.455474,104.57892 654.002979,105.330223 C654.888109,106.544825 656.019675,106.699661 656.881738,106.699661 C657.743802,106.699661 658.557357,106.103383 658.176557,105.330223 C657.795758,104.557062 656.290026,105.002583 655.658917,103.189374 C655.286764,102.120161 655.101615,100.364982 655.10347,97.9238385 C655.103873,97.3768325 654.660774,96.9330596 654.113768,96.932644 C654.113517,96.9326438 654.113266,96.9326437 654.113015,96.9326437 Z" id="形状结合"></path>
            </g>
        </g>
    </g>
</svg>