<?xml version="1.0" encoding="UTF-8"?>
<svg width="127px" height="110px" viewBox="0 0 127 110" version="1.1" xmlns="http://www.w3.org/2000/svg" xmlns:xlink="http://www.w3.org/1999/xlink">
    <!-- Generator: Sketch 63.1 (92452) - https://sketch.com -->
    <title>编组 7</title>
    <desc>Created with Sketch.</desc>
    <defs>
        <polygon id="path-1" points="0.9799218 0.3497472 21.2305698 0.3497472 21.2305698 10.94544 0.9799218 10.94544"></polygon>
    </defs>
    <g id="页面-1" stroke="none" stroke-width="1" fill="none" fill-rule="evenodd">
        <g id="首页-移动端" transform="translate(-86.000000, -3801.000000)">
            <g id="供应链数字化转型，不只是技术的升级" transform="translate(0.000000, 3159.000000)">
                <g id="编组-6" transform="translate(86.000000, 148.000000)">
                    <g id="编组-7" transform="translate(0.000000, 485.760000)">
                        <path d="M65.12,1.01613647 L116.47137,30.6638635 C117.560461,31.292651 118.23137,32.4546981 118.23137,33.7122729 L118.23137,93.0077271 C118.23137,94.2653019 117.560461,95.427349 116.47137,96.0561365 L65.12,125.703864 C64.0309082,126.332651 62.6890918,126.332651 61.6,125.703864 L10.2486304,96.0561365 C9.15953863,95.427349 8.48863042,94.2653019 8.48863042,93.0077271 L8.48863042,33.7122729 C8.48863042,32.4546981 9.15953863,31.292651 10.2486304,30.6638635 L61.6,1.01613647 C62.6890918,0.387349036 64.0309082,0.387349036 65.12,1.01613647 Z" id="多边形备份-3" fill="#2D7BFA" opacity="0.101306734" transform="translate(63.360000, 63.360000) rotate(90.000000) translate(-63.360000, -63.360000) "></path>
                        <g id="4" transform="translate(35.200000, 28.160000)">
                            <path d="M46.9250152,47.1569807 C45.7837282,56.2743423 38.4493389,63.5053533 29.2277925,64.5795252 L29.2277925,61.2116032 L24.2910317,61.2116032 L24.2910317,64.5507059 C15.1276738,63.3966261 7.86337515,56.1629952 6.76837437,47.0639731 L10.1023079,47.0639731 L10.1023079,42.173871 L6.78688888,42.173871 C7.93743317,33.1010482 15.2176014,25.9040964 24.3862492,24.7932454 L24.3862492,28.1192485 L29.3216875,28.1192485 L29.3216875,24.7932454 C38.5220745,25.9080263 45.8234021,33.1508269 46.9342725,42.2681885 L43.5117338,42.2681885 L43.5117338,47.1569807 L46.9250152,47.1569807 Z M49.8542745,25.3774901 C50.3660684,25.8831369 51.1952538,25.8831369 51.7057251,25.3774901 L55.2155465,21.902151 C55.7260178,21.3951943 55.7260178,20.5738457 55.2155465,20.066889 L51.7057251,16.5915498 C51.1952538,16.0859031 50.3660684,16.0859031 49.8542745,16.5915498 L46.3457757,20.066889 C45.8339818,20.5738457 45.8339818,21.3951943 46.3457757,21.902151 L46.3550329,21.9113208 L44.0076581,24.2352 C40.094485,21.0074444 35.2436845,18.8695803 29.9260539,18.2656861 L29.9260539,15.2907539 L31.7907291,15.2907539 L31.7907291,8.5536 L21.9172076,8.5536 L21.9172076,15.2907539 L23.5623537,15.2907539 L23.5623537,18.2997452 C10.3059675,19.914933 0,31.1177601 0,44.6798355 C0,59.347522 12.046331,71.28 26.8539684,71.28 C41.6616057,71.28 53.7079367,59.347522 53.7079367,44.6798355 C53.7079367,38.2256342 51.372464,32.304589 47.4989649,27.6935096 L49.8450173,25.3683204 L49.8542745,25.3774901 Z" id="Fill-1" fill="#2D7BFA"></path>
                            <path d="M27.4544661,44.4439566 L27.2266597,44.7251122 C26.9720526,44.979491 26.6102424,45.1401513 26.2082311,45.1401513 C25.3774078,45.1401513 24.707389,44.4707334 24.707389,43.6406551 C24.707389,43.372888 24.7877912,43.1051208 24.921795,42.8909071 C25.0812595,42.5963632 25.350607,42.3687611 25.6722161,42.2482658 C25.846421,42.1813241 26.0206259,42.141159 26.2082311,42.141159 C27.0256541,42.141159 27.6956729,42.8239653 27.6956729,43.6406551 C27.6956729,43.935199 27.6152706,44.2163545 27.4544661,44.4439566 M38.2685696,31.4036954 L27.7090732,40.4810025 C27.2534605,40.2534004 26.7442462,40.1329052 26.2082311,40.1329052 C24.278577,40.1329052 22.6973326,41.7127315 22.6973326,43.6406551 C22.6973326,44.0021408 22.7509341,44.3368498 22.8581371,44.6715587 L20.218263,46.9341913 C19.8832536,47.2153469 19.8698532,47.7374928 20.1914622,48.0320367 L21.9603119,49.6921932 C22.2685205,49.9867371 22.7643345,49.9599604 23.032342,49.6252514 L25.2702048,47.0145215 C25.5784134,47.10824 25.8866221,47.1484051 26.2082311,47.1484051 C28.1378853,47.1484051 29.7057293,45.5685788 29.7057293,43.6406551 C29.7057293,43.1185091 29.5985263,42.6231399 29.3975206,42.1813241 L38.4561749,31.5911324 C38.5633779,31.4572489 38.4025734,31.2832002 38.2685696,31.4036954" id="Fill-3" fill="#2D7BFA"></path>
                            <g id="编组" transform="translate(15.681600, 0.000000)">
                                <mask id="mask-2" fill="white">
                                    <use xlink:href="#path-1"></use>
                                </mask>
                                <g id="Clip-6"></g>
                                <path d="M2.7708318,9.8480448 C2.7708318,6.1516224 6.5023398,3.1559616 11.1052458,3.1559616 C15.7081518,3.1559616 19.4396598,6.1516224 19.4396598,9.8480448 C19.4396598,10.223136 19.3928823,10.5880896 19.3180383,10.94544 C20.5168788,9.8467776 21.2305698,8.5010112 21.2305698,7.042464 C21.2305698,3.3460416 16.6971618,0.3491136 11.1052458,0.3491136 C5.5133298,0.3491136 0.9799218,3.3460416 0.9799218,7.042464 C0.9799218,8.5010112 1.6936128,9.8467776 2.8924533,10.94544 C2.8189458,10.5880896 2.7708318,10.223136 2.7708318,9.8480448" id="Fill-5" fill="#2D7BFA" mask="url(#mask-2)"></path>
                            </g>
                        </g>
                    </g>
                </g>
            </g>
        </g>
    </g>
</svg>