<?xml version="1.0" encoding="UTF-8"?>
<svg width="144px" height="144px" viewBox="0 0 144 144" version="1.1" xmlns="http://www.w3.org/2000/svg" xmlns:xlink="http://www.w3.org/1999/xlink">
    <!-- Generator: Sketch 63.1 (92452) - https://sketch.com -->
    <title>费率</title>
    <desc>Created with Sketch.</desc>
    <defs>
        <linearGradient x1="50%" y1="0%" x2="50%" y2="100%" id="linearGradient-1">
            <stop stop-color="#59B2FD" offset="0%"></stop>
            <stop stop-color="#2D7BFA" offset="100%"></stop>
        </linearGradient>
        <circle id="path-2" cx="50" cy="50" r="50"></circle>
        <filter x="-36.5%" y="-29.5%" width="173.0%" height="173.0%" filterUnits="objectBoundingBox" id="filter-3">
            <feOffset dx="0" dy="7" in="SourceAlpha" result="shadowOffsetOuter1"></feOffset>
            <feGaussianBlur stdDeviation="11" in="shadowOffsetOuter1" result="shadowBlurOuter1"></feGaussianBlur>
            <feColorMatrix values="0 0 0 0 0.88067573   0 0 0 0 0.88067573   0 0 0 0 0.914119112  0 0 0 1 0" type="matrix" in="shadowBlurOuter1"></feColorMatrix>
        </filter>
    </defs>
    <g id="页面-1" stroke="none" stroke-width="1" fill="none" fill-rule="evenodd">
        <g id="首页-移动端" transform="translate(-50.000000, -4586.000000)">
            <g id="提供高效便捷的SAAS服务" transform="translate(0.000000, 4433.000000)">
                <g id="费率" transform="translate(122.000000, 218.000000) scale(-1, 1) translate(-122.000000, -218.000000) translate(72.000000, 168.000000)">
                    <g id="椭圆形">
                        <use fill="black" fill-opacity="1" filter="url(#filter-3)" xlink:href="#path-2"></use>
                        <use fill="url(#linearGradient-1)" fill-rule="evenodd" xlink:href="#path-2"></use>
                    </g>
                    <g id="费用更低" transform="translate(29.000000, 29.000000)" fill="#FFFFFF" fill-rule="nonzero">
                        <path d="M32.66725,23.33275 C27.53275,23.33275 23.33275,27.53275 23.33275,32.66725 C23.33275,37.8 27.53275,42 32.66725,42 C37.8,42 42,37.8 42,32.66725 C42,27.53275 37.8,23.33275 32.66725,23.33275 L32.66725,23.33275 Z M32.66725,37.33275 C30.0930733,37.3260228 28.0076926,35.241424 28,32.66725 C28,30.1 30.1,28 32.66725,28 C35.23275,28 37.33275,30.1 37.33275,32.66725 C37.33275,35.23275 35.23275,37.33275 32.66725,37.33275 L32.66725,37.33275 Z M9.33275,18.66725 C14.46725,18.66725 18.66725,14.46725 18.66725,9.33275 C18.66725,4.2 14.46725,0 9.33275,0 C4.2,0 0,4.2 0,9.33275 C0,14.46725 4.2,18.66725 9.33275,18.66725 Z M9.33275,4.66725 C11.9,4.66725 14,6.76725 14,9.33275 C14,11.9 11.9,14 9.33275,14 C6.75897359,13.991352 4.67493279,11.9065295 4.66725,9.33275 C4.66725,6.76725 6.76725,4.66725 9.33275,4.66725 Z" id="形状"></path>
                        <path d="M7.96107212,37.3039392 L41.3223385,3.97310541 C42.2258872,3.06075083 42.2258872,1.59086891 41.3223385,0.678514333 C40.4097587,-0.226171444 38.9385095,-0.226171444 38.0259297,0.678514333 L4.66641304,34.0093481 L4.66641304,27.9730554 C4.66641304,26.6905619 3.61660133,25.6407719 2.33233168,25.6407719 C1.04981171,25.6407719 0,26.6905619 0,27.9730554 L0,39.9581584 C0,39.9879024 0,40.0456409 0.0297446651,40.0753849 C0.0297446651,40.1033793 0.0577396439,40.1628674 0.0577396439,40.1908618 C0.0577396439,40.2206059 0.087484309,40.2503499 0.087484309,40.3080884 C0.087484309,40.3378324 0.117228974,40.3955709 0.117228974,40.4253149 C0.117228974,40.4533093 0.145223953,40.4830534 0.145223953,40.5407918 C0.145223953,40.5705359 0.174968618,40.6002799 0.204713283,40.6282743 C0.232708262,40.6580184 0.232708262,40.6877624 0.262452927,40.7455009 C0.292197592,40.775245 0.292197592,40.8032394 0.320192571,40.8329834 C0.349937236,40.8627275 0.349937236,40.8907219 0.379681901,40.95021 C0.40767688,40.9782044 0.437421545,41.0079484 0.437421545,41.0376925 C0.46716621,41.0656869 0.46716621,41.0954309 0.495161189,41.125175 C0.554650519,41.1829134 0.582645498,41.2406519 0.642134828,41.2703959 L0.642134828,41.30014 L0.670129807,41.3281344 L0.817103446,41.475105 C0.845098425,41.5030994 0.87484309,41.5030994 0.904587755,41.5328434 C0.932582734,41.5625875 0.962327399,41.5905819 0.992072064,41.5905819 C1.02006704,41.6203259 1.04981171,41.6203259 1.10755135,41.65007 C1.13729602,41.6780644 1.16704068,41.6780644 1.19503566,41.7078084 C1.22478033,41.7375525 1.25452499,41.7375525 1.31226463,41.7655469 C1.3420093,41.7952909 1.37000428,41.7952909 1.39974894,41.825035 C1.42949361,41.825035 1.45748859,41.8530294 1.51697792,41.8530294 C1.5449729,41.8530294 1.60446223,41.8827734 1.63245721,41.8827734 C1.66220187,41.8827734 1.69194654,41.9125175 1.74968618,41.9125175 C1.77943084,41.9125175 1.83717049,41.9405119 1.86691515,41.9405119 C1.89491013,41.9405119 1.95439946,41.9405119 1.98239444,41.9702559 C2.01213911,41.9702559 2.04188377,41.9702559 2.09962342,42 L13.9974894,42 C15.2800094,42 16.3298211,40.95021 16.3298211,39.6659668 C16.3298211,38.3834733 15.2800094,37.3039392 13.9974894,37.3039392 L7.96107212,37.3039392 Z"></path>
                    </g>
                </g>
            </g>
        </g>
    </g>
</svg>