<?xml version="1.0" encoding="UTF-8"?>
<svg width="144px" height="144px" viewBox="0 0 144 144" version="1.1" xmlns="http://www.w3.org/2000/svg" xmlns:xlink="http://www.w3.org/1999/xlink">
    <!-- Generator: Sketch 63.1 (92452) - https://sketch.com -->
    <title>迭代</title>
    <desc>Created with Sketch.</desc>
    <defs>
        <linearGradient x1="50%" y1="0%" x2="50%" y2="100%" id="linearGradient-1">
            <stop stop-color="#59B2FD" offset="0%"></stop>
            <stop stop-color="#2D7BFA" offset="100%"></stop>
        </linearGradient>
        <circle id="path-2" cx="50" cy="50" r="50"></circle>
        <filter x="-36.5%" y="-29.5%" width="173.0%" height="173.0%" filterUnits="objectBoundingBox" id="filter-3">
            <feOffset dx="0" dy="7" in="SourceAlpha" result="shadowOffsetOuter1"></feOffset>
            <feGaussianBlur stdDeviation="11" in="shadowOffsetOuter1" result="shadowBlurOuter1"></feGaussianBlur>
            <feColorMatrix values="0 0 0 0 0.88067573   0 0 0 0 0.88067573   0 0 0 0 0.914119112  0 0 0 1 0" type="matrix" in="shadowBlurOuter1"></feColorMatrix>
        </filter>
    </defs>
    <g id="页面-1" stroke="none" stroke-width="1" fill="none" fill-rule="evenodd">
        <g id="首页-移动端" transform="translate(-388.000000, -4586.000000)">
            <g id="提供高效便捷的SAAS服务" transform="translate(0.000000, 4433.000000)">
                <g id="迭代" transform="translate(410.000000, 168.000000)">
                    <g id="椭圆形">
                        <use fill="black" fill-opacity="1" filter="url(#filter-3)" xlink:href="#path-2"></use>
                        <use fill="url(#linearGradient-1)" fill-rule="evenodd" xlink:href="#path-2"></use>
                    </g>
                    <g id="迭代开发" transform="translate(28.000000, 28.000000)" fill="#FFFFFF" fill-rule="nonzero">
                        <path d="M43.2188702,13.5000113 C39.6258735,5.29448782 31.5153129,-0.00494928443 22.5577037,1.12688937e-05 C15.4514658,-0.00708852435 8.75892539,3.3410054 4.50329775,9.03214535 C3.96965628,9.85557413 4.16562603,10.9517118 4.95151877,11.5392259 C5.73741151,12.12674 6.84418685,12.0045026 7.48292972,11.259645 C11.0350825,6.50605586 16.6236243,3.70937306 22.5577476,3.71573007 C30.0363508,3.71080344 36.8082049,8.13458963 39.8085793,14.9850205 C40.2588055,15.8590632 41.3104097,16.2332249 42.2115236,15.8399902 C43.1126375,15.4467555 43.5534841,14.4213071 43.2188702,13.4968127 L43.2188702,13.5000113 Z M1.51087784,14.6250205 C0.584138689,16.5024046 0.0690570226,18.5560736 0.000100183504,20.6486037 C-0.00678425207,21.3135048 0.341570587,21.9315717 0.913942804,22.2699845 C1.48631502,22.6083972 2.19574766,22.6157429 2.77500431,22.2892545 C3.35426097,21.9627661 3.71533877,21.3520449 3.7222232,20.6871437 C3.78420779,19.1772181 4.15504381,17.696025 4.81183406,16.3350203 C5.19247427,15.4381568 4.81833555,14.3994397 3.95323264,13.951295 C3.08812974,13.5031503 2.0238455,13.7967287 1.5108339,14.6250205 L1.51087784,14.6250205 Z M1.95762048,31.6382262 C5.58322738,39.7694068 13.654922,45.0049165 22.5577037,44.9999862 C29.6520736,45.0078306 36.3352309,41.6715778 40.5928619,35.9967656 C41.1241231,35.1741741 40.9284314,34.0807595 40.1448443,33.493496 C39.3612571,32.9062324 38.2568821,33.0253052 37.6164818,33.7661018 C34.0623083,38.5054585 28.4816433,41.2916307 22.5577037,41.2842649 C15.1251012,41.2890611 8.38592164,36.918814 5.35828741,30.1307264 C4.90291095,29.2584711 3.84805536,28.8903041 2.9488302,29.2897747 C2.04960503,29.6892453 1.61565538,30.7187972 1.95762048,31.6414342 L1.95762048,31.6382262 Z M43.6592408,30.5582263 C44.5945616,28.6296426 45.0156405,26.6046429 44.9995567,24.2903512 C44.9906738,23.2625152 44.1502571,22.4364905 43.1224333,22.4453025 C42.0946096,22.4542564 41.2685948,23.2946832 41.2774776,24.3225192 C41.2903534,26.080727 40.9881891,27.5464347 40.3131972,28.9382265 C39.9369351,29.8499287 40.3358793,30.8969505 41.2234225,31.3270965 C42.1109658,31.7572425 43.1799707,31.4216591 43.6624488,30.5614343 L43.6592408,30.5582263 Z" id="形状"></path>
                        <path d="M34.1292814,12.0285658 C33.6050087,12.0259787 33.1011926,12.2340775 32.7286668,12.6070828 C32.3561411,12.980088 32.1454213,13.487445 32.1428634,14.0175408 C32.1428634,15.1127812 33.0331963,16.0033335 34.1292814,16.0033335 L41.9078729,16.0033335 C42.723401,16.0084486 43.5075145,15.6856209 44.0874953,15.1058989 C44.6674762,14.5261769 44.9957474,13.7371164 45,12.9125251 L45,4.98257411 C44.9911504,3.8812634 44.1028617,2.99471259 43.013626,3.00004293 C41.923124,2.99289246 41.0328498,3.87997265 41.024,4.98257411 L41.024,12.0285658 L34.1292814,12.0285658 Z M10.8707626,32.971478 C11.3950352,32.9740533 11.8988467,32.7659432 12.2713642,32.3929296 C12.6438816,32.019916 12.8545903,31.5125543 12.8571366,30.9824586 C12.8482869,29.8811304 11.9599714,28.9945725 10.8707186,28.9999091 L3.092171,28.9999091 C2.277188,28.9947812 1.49354736,29.3171591 0.913649307,29.8961818 C0.333751253,30.4752046 0.00510053181,31.263439 -3.55271368e-15,32.0874743 L-3.55271368e-15,40.0174253 C-3.55271368e-15,41.109422 0.890332913,41.9999568 1.98641796,41.9999568 C3.07692003,42.0071317 3.96721405,41.1200713 3.97608788,40.0174697 L3.97608788,32.971478 L10.8706747,32.971478 L10.8707626,32.971478 Z" id="形状"></path>
                    </g>
                </g>
            </g>
        </g>
    </g>
</svg>