<?xml version="1.0" encoding="UTF-8"?>
<svg width="144px" height="144px" viewBox="0 0 144 144" version="1.1" xmlns="http://www.w3.org/2000/svg" xmlns:xlink="http://www.w3.org/1999/xlink">
    <!-- Generator: Sketch 63.1 (92452) - https://sketch.com -->
    <title>技术服务</title>
    <desc>Created with Sketch.</desc>
    <defs>
        <linearGradient x1="50%" y1="0%" x2="50%" y2="100%" id="linearGradient-1">
            <stop stop-color="#59B2FD" offset="0%"></stop>
            <stop stop-color="#2D7BFA" offset="100%"></stop>
        </linearGradient>
        <circle id="path-2" cx="50" cy="50" r="50"></circle>
        <filter x="-36.5%" y="-29.5%" width="173.0%" height="173.0%" filterUnits="objectBoundingBox" id="filter-3">
            <feOffset dx="0" dy="7" in="SourceAlpha" result="shadowOffsetOuter1"></feOffset>
            <feGaussianBlur stdDeviation="11" in="shadowOffsetOuter1" result="shadowBlurOuter1"></feGaussianBlur>
            <feColorMatrix values="0 0 0 0 0.88067573   0 0 0 0 0.88067573   0 0 0 0 0.914119112  0 0 0 1 0" type="matrix" in="shadowBlurOuter1"></feColorMatrix>
        </filter>
    </defs>
    <g id="页面-1" stroke="none" stroke-width="1" fill="none" fill-rule="evenodd">
        <g id="首页-移动端" transform="translate(-556.000000, -4586.000000)">
            <g id="提供高效便捷的SAAS服务" transform="translate(0.000000, 4433.000000)">
                <g id="技术服务" transform="translate(578.000000, 168.000000)">
                    <g id="椭圆形">
                        <use fill="black" fill-opacity="1" filter="url(#filter-3)" xlink:href="#path-2"></use>
                        <use fill="url(#linearGradient-1)" fill-rule="evenodd" xlink:href="#path-2"></use>
                    </g>
                    <path d="M39.7115385,51 L43.8307692,56.44 C44.3660606,57.1469245 44.2214141,58.1498066 43.5076923,58.68 C42.7939705,59.2101933 41.7814452,59.0669245 41.2461538,58.36 L36.4,51.96 C35.9692308,51.3911111 35.9692308,50.6088889 36.4,50.04 L41.2461538,43.64 C41.5924266,43.1827 42.1587084,42.9431124 42.7316862,43.0114874 C43.304664,43.0798625 43.7972889,43.4458124 44.0239939,43.9714875 C44.2506989,44.4971625 44.1770421,45.1027 43.8307692,45.56 L39.7115385,51 Z M59.0153846,56.44 C58.4800932,57.1469245 58.6247397,58.1498066 59.3384615,58.68 C60.0521834,59.2101934 61.0647086,59.0669245 61.6,58.36 L66.4461538,51.96 C66.8769231,51.3911111 66.8769231,50.6088889 66.4461538,50.04 L61.6,43.64 C61.2537272,43.1827 60.6874455,42.9431124 60.1144677,43.0114875 C59.5414899,43.0798625 59.048865,43.4458124 58.82216,43.9714875 C58.595455,44.4971625 58.6691118,45.1027 59.0153846,45.56 L63.1346154,51 L59.0153846,56.44 Z M51.3843077,57.7472 C51.1774777,58.5950414 50.3231481,59.1225827 49.4635121,58.9332749 C48.6038761,58.7439671 48.0557148,57.9075712 48.2310769,57.0528 L51.4618462,42.6528 C51.6686761,41.8049586 52.5230058,41.2774173 53.3826417,41.4667251 C54.2422777,41.6560329 54.7904391,42.4924288 54.6150769,43.3472 L51.3843077,57.7472 Z M67.3023077,62.3952 C67.9758827,61.8155219 68.9963635,61.88644 69.5816154,62.5536 C70.1668673,63.22076 70.0952673,64.2315219 69.4216923,64.8112 L58.2916923,74.608 C57.998126,74.8605371 57.622445,75 57.2336154,75 L32.9996154,75 C30.2292308,75 28,72.7312 28,69.9536 L28,32.0464 C28,29.2688 30.2292308,27 32.9996154,27 L65.0003846,27 C67.7707692,27 70,29.2688 70,32.0464 L70,38.7952 C70,39.6788556 69.2767677,40.3952 68.3846154,40.3952 C67.4924631,40.3952 66.7692308,39.6788556 66.7692308,38.7952 L66.7692308,32.0464 C66.7692308,31.016 65.9663846,30.2 65.0003846,30.2 L32.9996154,30.2 C32.0336154,30.2 31.2307692,31.016 31.2307692,32.0464 L31.2307692,69.9536 C31.2307692,70.984 32.0336154,71.8 32.9996154,71.8 L56.6294615,71.8 L67.3039231,62.3952 L67.3023077,62.3952 Z M70,63.56 C70,64.4436556 69.2767677,65.16 68.3846154,65.16 C67.4924631,65.16 66.7692308,64.4436556 66.7692308,63.56 L66.7692308,59 C66.7692308,58.1163444 67.4924631,57.4 68.3846154,57.4 C69.2767677,57.4 70,58.1163444 70,59 L70,63.56 Z" id="技术支持" fill="#FFFFFF" fill-rule="nonzero"></path>
                </g>
            </g>
        </g>
    </g>
</svg>