<?xml version="1.0" encoding="UTF-8"?>
<svg width="127px" height="111px" viewBox="0 0 127 111" version="1.1" xmlns="http://www.w3.org/2000/svg" xmlns:xlink="http://www.w3.org/1999/xlink">
    <!-- Generator: Sketch 63.1 (92452) - https://sketch.com -->
    <title>编组 5</title>
    <desc>Created with Sketch.</desc>
    <defs>
        <polygon id="path-1" points="0.00057024 0.6244128 41.8724795 0.6244128 41.8724795 71.2797149 0.00057024 71.2797149"></polygon>
    </defs>
    <g id="页面-1" stroke="none" stroke-width="1" fill="none" fill-rule="evenodd">
        <g id="首页-移动端" transform="translate(-86.000000, -3639.000000)">
            <g id="供应链数字化转型，不只是技术的升级" transform="translate(0.000000, 3159.000000)">
                <g id="编组-6" transform="translate(86.000000, 148.000000)">
                    <g id="编组-5" transform="translate(0.000000, 323.840000)">
                        <path d="M65.12,1.01613647 L116.47137,30.6638635 C117.560461,31.292651 118.23137,32.4546981 118.23137,33.7122729 L118.23137,93.0077271 C118.23137,94.2653019 117.560461,95.427349 116.47137,96.0561365 L65.12,125.703864 C64.0309082,126.332651 62.6890918,126.332651 61.6,125.703864 L10.2486304,96.0561365 C9.15953863,95.427349 8.48863042,94.2653019 8.48863042,93.0077271 L8.48863042,33.7122729 C8.48863042,32.4546981 9.15953863,31.292651 10.2486304,30.6638635 L61.6,1.01613647 C62.6890918,0.387349036 64.0309082,0.387349036 65.12,1.01613647 Z" id="多边形备份-2" fill="#2D7BFA" opacity="0.101306734" transform="translate(63.360000, 63.360000) rotate(90.000000) translate(-63.360000, -63.360000) "></path>
                        <g id="3" transform="translate(36.960000, 26.400000)">
                            <g id="编组" transform="translate(0.000000, 0.801330)">
                                <mask id="mask-2" fill="white">
                                    <use xlink:href="#path-1"></use>
                                </mask>
                                <g id="Clip-2"></g>
                                <path d="M27.6671894,24.4116893 L38.5430918,28.7170013 C39.8346854,29.2273661 41.2916486,28.5559085 41.7407126,27.2415053 L41.7407126,27.2415053 C42.145583,26.0596829 41.589599,24.7652381 40.4548214,24.2434685 L23.1751238,16.2985997 C22.3140614,15.9022829 21.4002518,15.6356957 20.4607814,15.5073917 L16.8440342,15.0112829 C16.4648246,14.9585357 16.0827638,14.9328749 15.6992774,14.9328749 L16.2737942,14.9328749 L16.2737942,13.3818221 L16.1583206,13.3818221 C17.1020678,12.4708637 17.9061062,11.2206125 18.3124022,9.77790528 C18.8199158,9.74939328 19.2276374,9.06938208 19.2276374,8.22257568 C19.2276374,7.50835008 18.9339638,6.93098208 18.5390726,6.74137728 C18.1399046,3.28572288 15.8176022,0.62412768 12.984935,0.62412768 C10.1608214,0.62412768 7.84279584,3.26719008 7.43222304,6.70431168 C6.98315904,6.82691328 6.63388704,7.44419808 6.63388704,8.22257568 C6.63388704,9.08648928 7.05729024,9.78931008 7.57905984,9.78931008 C7.60472064,9.78931008 7.62467904,9.76935168 7.64891424,9.76650048 C8.04950784,11.2134845 8.84784384,12.4680125 9.79159104,13.3818221 L9.78588864,13.3818221 L9.78588864,14.9328749 L13.6421366,14.9328749 C11.0732054,14.9328749 8.50855104,15.1096493 5.96385504,15.4603469 L4.91033664,15.6071837 C2.85604704,15.8894525 1.04553504,17.1026381 0.00057024,18.8946173 L0.00057024,39.8637677 C0.00057024,41.0826557 0.98851104,42.0720221 2.20739904,42.0720221 L2.80615104,42.0720221 C3.83258304,42.0720221 4.69364544,42.8475485 4.80056544,43.8668525 L7.68597984,71.2797149 L18.566159,71.2797149 L23.441711,26.9563853 C23.6655302,24.9220541 25.7640134,23.6575469 27.6671894,24.4116893" id="Fill-1" fill="#2D7BFA" mask="url(#mask-2)"></path>
                            </g>
                            <path d="M35.448827,59.8388472 C31.7265854,59.8388472 28.7100158,56.8222776 28.7100158,53.100036 C28.7100158,49.37922 31.7265854,46.3612248 35.448827,46.3612248 C39.169643,46.3612248 42.1876382,49.37922 42.1876382,53.100036 C42.1876382,56.8222776 39.169643,59.8388472 35.448827,59.8388472 L35.448827,59.8388472 Z M54.3636878,55.4080824 L54.3636878,50.441292 L50.218043,50.441292 C49.8088958,48.1589064 48.885107,46.0604232 47.5707038,44.2598904 L50.4946094,41.3359848 L46.981931,37.824732 L44.0252366,40.7814264 C42.206171,39.5126424 40.0920062,38.6473032 37.808195,38.2852008 L37.808195,34.1224488 L32.8414046,34.1224488 L32.8414046,38.323692 C30.8113502,38.6786664 28.9366862,39.4598952 27.2744366,40.5433512 L24.1338398,68.0317704 L26.7997118,65.3644728 C28.6330334,66.6603432 30.7671566,67.5456408 33.0780542,67.9134456 L33.0780542,71.9635752 L38.0448446,71.9635752 L38.0448446,67.8792312 C40.3486142,67.4757864 42.4670558,66.550572 44.2818446,65.2261896 L47.1501518,68.0944968 L50.6614046,64.5818184 L47.7631598,61.682148 C49.0433486,59.8488264 49.9143902,57.7147032 50.2707902,55.4080824 L54.3636878,55.4080824 Z" id="Fill-3" fill="#2D7BFA"></path>
                        </g>
                    </g>
                </g>
            </g>
        </g>
    </g>
</svg>