<?xml version="1.0" encoding="UTF-8"?>
<svg width="56px" height="57px" viewBox="0 0 56 57" version="1.1" xmlns="http://www.w3.org/2000/svg" xmlns:xlink="http://www.w3.org/1999/xlink">
    <!-- Generator: Sketch 63.1 (92452) - https://sketch.com -->
    <title>云平台</title>
    <desc>Created with Sketch.</desc>
    <g id="页面-1" stroke="none" stroke-width="1" fill="none" fill-rule="evenodd">
        <g id="首页-移动端" transform="translate(-608.000000, -732.000000)" fill="#2D7BFA" fill-rule="nonzero">
            <g id="编组-9" transform="translate(-271.000000, 530.000000)">
                <g id="云平台" transform="translate(879.000000, 202.000000)">
                    <path d="M51.4228524,49.1427406 C50.9557965,49.1427406 50.4887406,49.2357259 50.0216847,49.4216966 L44.8840701,44.6794454 L44.8840701,38.588907 C51.1893244,37.4730832 56,31.9404568 56,25.3384992 C56,19.0154976 51.5162636,13.5293638 45.3978315,12.1810767 C42.8290242,4.97471452 35.7764804,0 28.0233528,0 C20.2235196,0 13.264387,4.92822186 10.6488741,12.1810767 C4.48373645,13.5293638 0,19.0154976 0,25.3384992 C0,32.0799347 5.0442035,37.7055465 11.5362802,38.6353997 L11.5362802,44.6794454 L9.24770642,46.8181077 C8.82735613,46.6786297 8.36030025,46.5391517 7.89324437,46.5391517 C5.74478732,46.5391517 3.96997498,48.2593801 3.96997498,50.4445351 L3.96997498,50.4910277 C3.96997498,52.62969 5.69808173,54.3964111 7.89324437,54.3964111 L7.93994996,54.3964111 C10.088407,54.3964111 11.8632193,52.6761827 11.8632193,50.4910277 L11.8632193,50.4445351 C11.8632193,50.0725938 11.8165138,49.7471452 11.7231026,49.3752039 L15.1793161,46.2137031 L15.1793161,38.7748777 L21.4845705,38.7748777 L21.4845705,42.4013051 C20.176814,43.0522023 19.2894078,44.3539967 19.2894078,45.9347471 C19.2894078,48.0734095 21.0175146,49.8401305 23.2126772,49.8401305 L23.2593828,49.8401305 C25.4078399,49.8401305 27.1826522,48.1199021 27.1826522,45.9347471 L27.1826522,45.8882545 C27.1826522,44.4004894 26.3419516,43.0986949 25.1276063,42.4477977 L25.1276063,38.7748777 L31.292744,38.7748777 L31.292744,46.3531811 C30.0316931,47.0040783 29.1442869,48.3058728 29.1442869,49.8401305 C29.1442869,51.9787928 30.8723937,53.7455139 33.0675563,53.7455139 L33.1142619,53.7455139 C35.2627189,53.7455139 37.0375313,52.0252855 37.0375313,49.8401305 L37.0375313,49.7936378 C37.0375313,48.2593801 36.1968307,46.9575856 34.8890742,46.3066884 L34.8890742,38.7748777 L41.3344454,38.7748777 L41.3344454,46.2601958 L47.6396997,52.0717781 C47.5462886,52.3972268 47.499583,52.7226754 47.499583,53.0946166 C47.499583,55.233279 49.2276897,57 51.4228524,57 L51.469558,57 C53.618015,57 55.3928274,55.2797716 55.3928274,53.0946166 L55.3928274,53.048124 C55.4395329,50.9094617 53.618015,49.1427406 51.4228524,49.1427406 Z M27.1826522,26.9657423 L40.7739783,26.9657423 L40.7739783,30.545677 L27.1826522,30.545677 L27.1826522,26.9657423 L27.1826522,26.9657423 Z M19.5696414,26.9657423 L23.1659716,26.9657423 L23.1659716,30.545677 L19.5696414,30.545677 L19.5696414,26.9657423 L19.5696414,26.9657423 Z" id="形状"></path>
                </g>
            </g>
        </g>
    </g>
</svg>