<?xml version="1.0" encoding="UTF-8"?>
<svg width="54px" height="54px" viewBox="0 0 54 54" version="1.1" xmlns="http://www.w3.org/2000/svg" xmlns:xlink="http://www.w3.org/1999/xlink">
    <!-- Generator: Sketch 63.1 (92452) - https://sketch.com -->
    <title>政府</title>
    <desc>Created with Sketch.</desc>
    <g id="页面-1" stroke="none" stroke-width="1" fill="none" fill-rule="evenodd">
        <g id="首页-移动端" transform="translate(-83.000000, -734.000000)" fill="#2D7BFA" fill-rule="nonzero">
            <g id="编组-9" transform="translate(-271.000000, 530.000000)">
                <g id="政府" transform="translate(354.000000, 204.000000)">
                    <path d="M27.1660163,2.0102361 C46.7766567,1.43493473 60.8421533,25.2358187 48.1554122,41.6203471 L51.2908144,44.7348628 C51.792918,45.2335058 51.827991,46.0306771 51.3715955,46.570931 L46.9546489,51.794885 C46.4744787,52.3627312 45.6248642,52.4437993 45.044655,51.9771317 C42.9484538,50.2920292 41.5313615,49.1917482 40.7961165,48.6776492 C36.0108628,53.1794164 23.7225506,54.3313792 16.3632548,51.3433482 L9.2942235,47.7419344 L9.2942235,47.9214611 C9.2942235,51.0903788 8.31526605,51.5228749 6.79274756,52.8557243 C2.2977582,53.7914391 -1.00057541,49.9016946 2.40729193,45.6528969 L6.2135881,44.7171821 L5.63305948,44.1405207 C4.76363571,42.5560619 3.2041496,41.8365952 2.76875313,39.784279 C2.76875313,39.784279 6.79411671,35.9706973 7.19117639,35.7857304 C9.40375718,40.4683843 28.6515672,48.4260398 34.6704442,41.4761818 L17.8118381,25.163736 L14.7668012,27.8647963 C14.3100411,28.5411801 13.7181744,29.1170678 13.0279536,29.5566991 L12.447425,29.5566991 L6.31353761,23.3086271 C5.79410053,22.7784683 5.79653377,21.933116 6.31901432,21.4059164 L18.5730973,9.03217687 C21.4075549,9.55780693 24.3354173,9.23202535 26.9825474,8.09646214 L29.7386892,11.1334549 C30.2267127,11.6712358 30.2050443,12.4945286 29.689399,13.0062445 L24.30171,18.3580432 L41.1219793,35.0662637 C41.4848097,34.8146544 41.1219793,35.0662637 41.4848096,34.7072104 C42.6859333,33.1135945 43.3573635,31.1878321 43.405757,29.1976458 C44.639352,20.4408388 41.0742365,11.6957897 34.0543171,6.25903389 C31.760842,4.83784335 29.46428,3.42157411 27.1646472,2.0102361 L27.1660163,2.0102361 Z" id="路径"></path>
                </g>
            </g>
        </g>
    </g>
</svg>