<?xml version="1.0" encoding="UTF-8"?>
<svg width="144px" height="144px" viewBox="0 0 144 144" version="1.1" xmlns="http://www.w3.org/2000/svg" xmlns:xlink="http://www.w3.org/1999/xlink">
    <!-- Generator: Sketch 63.1 (92452) - https://sketch.com -->
    <title>集成</title>
    <desc>Created with Sketch.</desc>
    <defs>
        <linearGradient x1="50%" y1="0%" x2="50%" y2="100%" id="linearGradient-1">
            <stop stop-color="#59B2FD" offset="0%"></stop>
            <stop stop-color="#2D7BFA" offset="100%"></stop>
        </linearGradient>
        <circle id="path-2" cx="50" cy="50" r="50"></circle>
        <filter x="-36.5%" y="-29.5%" width="173.0%" height="173.0%" filterUnits="objectBoundingBox" id="filter-3">
            <feOffset dx="0" dy="7" in="SourceAlpha" result="shadowOffsetOuter1"></feOffset>
            <feGaussianBlur stdDeviation="11" in="shadowOffsetOuter1" result="shadowBlurOuter1"></feGaussianBlur>
            <feColorMatrix values="0 0 0 0 0.88067573   0 0 0 0 0.88067573   0 0 0 0 0.914119112  0 0 0 1 0" type="matrix" in="shadowBlurOuter1"></feColorMatrix>
        </filter>
    </defs>
    <g id="页面-1" stroke="none" stroke-width="1" fill="none" fill-rule="evenodd">
        <g id="首页-移动端" transform="translate(-219.000000, -4586.000000)">
            <g id="提供高效便捷的SAAS服务" transform="translate(0.000000, 4433.000000)">
                <g id="集成" transform="translate(241.000000, 168.000000)">
                    <g id="椭圆形">
                        <use fill="black" fill-opacity="1" filter="url(#filter-3)" xlink:href="#path-2"></use>
                        <use fill="url(#linearGradient-1)" fill-rule="evenodd" xlink:href="#path-2"></use>
                    </g>
                    <path d="M67.5,29 C69.9856579,29 72,31.0148 72,33.5 L72,66.5 C72,68.9852 69.9856579,71 67.5,71 L58.5,71 C56.0143422,71 54,68.9852 54,66.5 L53.9988158,59 L48.0102632,59 C47.3257895,59 46.6957895,59.2388001 46.1936842,59.6384 C48.155921,60.6248 49.5,62.6552 49.5,65 C49.5,68.3132001 46.8142105,71 43.4996053,71 C40.1861842,71 37.5003948,68.3132 37.5003947,65 C37.5003947,61.9016001 39.8486842,59.3516 42.8625,59.0336 C43.9027788,57.1403172 45.8718124,55.9648098 48.0102632,55.9604 L53.9988158,55.9592 L53.9988158,51.5 L38.8113158,51.5 C38.1446052,54.0884 35.7951315,56 33.0003947,56 C29.6857895,56 27,53.3132 27,50 C27,46.6868001 29.6857895,44 33.0003947,44 C35.7951316,44 38.1457895,45.9128 38.8113158,48.5 L53.9988158,48.5 L53.9988158,45.5396 L48.0102632,45.5396 C45.2119737,45.5396 42.8672369,43.5476 42.249079,40.8692 C39.5372369,40.2944 37.5003948,37.8848 37.5003947,35 C37.5003947,31.6867999 40.1861842,29 43.4996053,29 C46.8142105,29 49.5,31.6868 49.5,35 C49.5,37.6807999 47.7426316,39.9499999 45.3161842,40.7204 C45.7890697,41.8002648 46.8444001,42.4973735 48.0102632,42.5 L53.9988158,42.4988 L54,33.5 C54,31.0148 56.0143421,29 58.5,29 L67.5,29 Z M67.5,32 L58.5,32 C57.6710527,32 56.9996052,32.672 56.9996052,33.5 L56.9996052,66.5 C56.9996052,67.328 57.6710526,68 58.5,68 L67.5,68 C68.3289474,68 69.0003947,67.328 69.0003947,66.5 L69.0003947,33.5 C69.0003947,32.672 68.3289474,32 67.5,32 Z M43.981579,62.0384 L43.0176316,62.0384 C41.5894737,62.2688 40.5,63.5072 40.5,65 C40.5,66.6560001 41.8428948,68 43.4996053,68 C45.1575,68 46.5003947,66.656 46.5003947,65 C46.5003947,63.5072 45.4109211,62.2688 43.9827632,62.0384 L43.981579,62.0384 Z M33.0015789,47 C31.3436842,47 30.0007895,48.344 30.0007895,50 C30.0007895,51.656 31.3448684,53 33.0015789,53 C34.6582894,53 36.0011842,51.656 36.0011842,50 C36.0011842,48.3440001 34.6571052,47 33.0003947,47 L33.0015789,47 Z M43.5007895,32 C41.844079,32 40.5011842,33.344 40.5011842,35 C40.5011842,36.6559999 41.8440789,38 43.5007895,38 C45.1586842,38 46.501579,36.656 46.501579,35 C46.501579,33.3439999 45.1575,32 43.5007895,32 L43.5007895,32 Z" id="持续集成" fill="#FFFFFF" fill-rule="nonzero"></path>
                </g>
            </g>
        </g>
    </g>
</svg>