<?xml version="1.0" encoding="UTF-8"?>
<svg width="68px" height="43px" viewBox="0 0 68 43" version="1.1" xmlns="http://www.w3.org/2000/svg" xmlns:xlink="http://www.w3.org/1999/xlink">
    <!-- Generator: Sketch 63.1 (92452) - https://sketch.com -->
    <title>5g基站</title>
    <desc>Created with Sketch.</desc>
    <g id="页面-1" stroke="none" stroke-width="1" fill="none" fill-rule="evenodd">
        <g id="首页-移动端" transform="translate(-253.000000, -738.000000)" fill="#2D7BFA" fill-rule="nonzero">
            <g id="编组-9" transform="translate(-271.000000, 530.000000)">
                <g id="5g基站" transform="translate(524.000000, 208.000000)">
                    <path d="M32.9408629,9.76051014 L31.8231995,15.6093639 L11.86007,15.6093639 L10.6517852,23.1709895 L20.9712921,23.1709895 C20.9712921,23.1709895 26.5860403,23.3205765 28.7420734,25.0296086 C28.7420734,25.0296086 32.559498,27.4192618 30.6828808,33.7879306 C28.8062635,40.1603391 23.9164862,41.6188129 23.9164862,41.6188129 C23.9164862,41.6188129 19.7630074,43.0137122 14.87323,42.8155093 C9.9834527,42.6098271 0,42.830468 0,42.830468 L1.07235268,36.8357668 L17.6862679,36.903081 C17.6862679,36.903081 20.9033261,36.7721923 21.9756788,35.3772931 C23.0480315,33.9861335 23.3161197,33.0586938 23.1122217,31.5291661 C22.9120995,30.0033781 22.039869,29.1395129 20.5672719,29.1395129 L2.74507189,29.1395129 L5.69404184,9.76051014 L32.9408629,9.76051014 Z M49.6453995,23.1036753 L48.807152,29.0123639 L57.8843912,29.0123639 L56.6119163,36.7721923 L48.2369926,36.7721923 C48.2369926,36.7721923 43.4114054,37.3032263 42.7430729,31.4655916 C42.0709645,25.6279568 44.8877783,19.7230079 44.8877783,19.7230079 C44.8877783,19.7230079 46.7266367,15.9384554 50.2608696,15.9384554 L66.8596812,15.9384554 L68,9.76424982 L53.3268921,9.76424982 C53.3268921,9.76424982 48.2369926,9.43515832 45.1558665,11.2264632 C45.1558665,11.2264632 41.60653,12.4904738 39.5297907,15.5420497 C37.4530513,18.5936256 35.6406241,22.0416072 35.0364818,27.1537448 C34.4323394,32.2621427 35.3045699,36.9068207 36.7129769,38.4326086 C38.1213838,39.9583966 40.4662114,42.4527607 45.0199345,42.830468 C49.5774335,43.211915 62.5740463,42.830468 62.5740463,42.830468 L65.6551724,23.1036753 L49.6453995,23.1036753 L49.6453995,23.1036753 Z M35.5613304,5.84880867 C35.5613304,5.84880867 38.6500083,-2.71505018 50.2948526,0.882518451 L49.4641568,2.93186114 C49.4641568,2.93186114 41.5876506,-0.411409526 37.5927592,6.44715687 L35.5613304,5.84880867 L35.5613304,5.84880867 Z" id="形状"></path>
                    <path d="M36,11.432524 C36,11.432524 39.066244,1.27252127 53,4.71011617 L52.1563183,7.14735279 C52.1563183,7.14735279 42.6639703,3.76432287 38.4269786,12 L36,11.432524 L36,11.432524 Z" id="路径"></path>
                </g>
            </g>
        </g>
    </g>
</svg>