<?xml version="1.0" encoding="UTF-8"?>
<svg width="127px" height="111px" viewBox="0 0 127 111" version="1.1" xmlns="http://www.w3.org/2000/svg" xmlns:xlink="http://www.w3.org/1999/xlink">
    <!-- Generator: Sketch 63.1 (92452) - https://sketch.com -->
    <title>编组 4</title>
    <desc>Created with Sketch.</desc>
    <defs>
        <polygon id="path-1" points="0.166476536 0.572791074 19.0764735 0.572791074 19.0764735 19.6607647 0.166476536 19.6607647"></polygon>
        <polygon id="path-3" points="0 0.312499486 54.9050552 0.312499486 54.9050552 50.0715368 0 50.0715368"></polygon>
    </defs>
    <g id="页面-1" stroke="none" stroke-width="1" fill="none" fill-rule="evenodd">
        <g id="首页-移动端" transform="translate(-86.000000, -3477.000000)">
            <g id="供应链数字化转型，不只是技术的升级" transform="translate(0.000000, 3159.000000)">
                <g id="编组-6" transform="translate(86.000000, 148.000000)">
                    <g id="编组-4" transform="translate(0.000000, 161.920000)">
                        <path d="M65.12,1.01613647 L116.47137,30.6638635 C117.560461,31.292651 118.23137,32.4546981 118.23137,33.7122729 L118.23137,93.0077271 C118.23137,94.2653019 117.560461,95.427349 116.47137,96.0561365 L65.12,125.703864 C64.0309082,126.332651 62.6890918,126.332651 61.6,125.703864 L10.2486304,96.0561365 C9.15953863,95.427349 8.48863042,94.2653019 8.48863042,93.0077271 L8.48863042,33.7122729 C8.48863042,32.4546981 9.15953863,31.292651 10.2486304,30.6638635 L61.6,1.01613647 C62.6890918,0.387349036 64.0309082,0.387349036 65.12,1.01613647 Z" id="多边形备份" fill="#2D7BFA" opacity="0.101306734" transform="translate(63.360000, 63.360000) rotate(90.000000) translate(-63.360000, -63.360000) "></path>
                        <g id="2" transform="translate(35.200000, 29.920000)">
                            <polygon id="Fill-1" fill="#2D7BFA" points="32.7888 9.46447009 30.1164955 9.46447009 30.1164955 5.7024 24.0563045 5.7024 24.0563045 9.46447009 21.384 9.46447009 27.0864 15.6816"></polygon>
                            <g id="编组">
                                <g transform="translate(17.778071, 0.000000)">
                                    <mask id="mask-2" fill="white">
                                        <use xlink:href="#path-1"></use>
                                    </mask>
                                    <g id="Clip-3"></g>
                                    <path d="M9.62147503,2.22282553 C13.9336215,2.22282553 17.4412265,5.76521644 17.4412265,10.1164478 C17.4412265,14.4693298 13.9336215,18.01007 9.62147503,18.01007 C5.30932854,18.01007 1.8017236,14.4693298 1.8017236,10.1164478 C1.8017236,5.76521644 5.30932854,2.22282553 9.62147503,2.22282553 M19.0764735,10.1164478 C19.0764735,4.85403294 14.8346427,0.572130796 9.62147503,0.572130796 C4.40830741,0.572130796 0.166476536,4.85403294 0.166476536,10.1164478 C0.166476536,15.3805133 4.40830741,19.6607647 9.62147503,19.6607647 C14.8346427,19.6607647 19.0764735,15.3805133 19.0764735,10.1164478 Z" id="Fill-2" fill="#2D7BFA" mask="url(#mask-2)"></path>
                                </g>
                                <g transform="translate(0.000000, 12.654863)">
                                    <mask id="mask-4" fill="white">
                                        <use xlink:href="#path-3"></use>
                                    </mask>
                                    <g id="Clip-5"></g>
                                    <path d="M36.7631338,13.0459587 L19.6715315,13.0459587 C18.9978098,13.0459587 18.4516372,12.4946266 18.4516372,11.8145404 C18.4516372,11.1328035 18.9978098,10.5814714 19.6715315,10.5814714 L36.7631338,10.5814714 C37.4368556,10.5814714 37.9846634,11.1328035 37.9846634,11.8145404 C37.9846634,12.4946266 37.4368556,13.0459587 36.7631338,13.0459587 M54.6641834,21.809497 C54.1212813,19.8913898 51.3250089,17.1710448 51.3250089,17.1710448 L51.3217384,17.1726955 C49.5998232,10.3652304 44.1724382,4.792485 37.0018799,2.19429149 C35.2636122,5.78125115 31.621917,8.25894395 27.3997091,8.25894395 C23.3050505,8.25894395 19.7500234,5.93146437 17.9545221,2.51947835 C16.7084639,3.02128955 15.537627,3.63534799 14.4158475,4.31048214 C14.412577,4.30222867 14.4109418,4.29397519 14.4076713,4.28572172 C12.8083996,1.13784685 6.91823973,0.312499486 6.91823973,0.312499486 C10.9867344,2.91399439 8.04492496,9.89973452 8.04492496,9.89973452 L8.06127743,9.90138521 C6.7399978,11.611505 5.67708721,13.4899956 4.96575474,15.5104459 L2.26269136,15.5104459 C1.0133626,15.5104459 -0.000490574118,16.5338767 -0.000490574118,17.7950074 L-0.000490574118,25.8239866 C-0.000490574118,27.0851174 1.0133626,28.1085482 2.26269136,28.1085482 L4.96575474,28.1085482 C6.39496067,32.1692572 9.17488067,35.7000933 12.8345636,38.3081909 L10.36207,42.6313605 C9.73740566,43.7224697 10.1086067,45.1206081 11.1911403,45.7495228 L18.0804362,49.7656631 C19.1613345,50.3962285 20.5447535,50.0215208 21.1694178,48.9287609 L24.6753875,42.7997313 C25.7317571,42.9251841 26.8012087,43.0126709 27.8968242,43.0126709 C29.9147191,43.0126709 31.8622984,42.7683681 33.7346562,42.3540437 L37.4957245,48.9287609 C38.1203889,50.0215208 39.5038079,50.3962285 40.5847062,49.7656631 L47.474002,45.7495228 C48.5565356,45.1206081 48.9277367,43.7224697 48.3030723,42.6313605 L44.9344634,36.7416816 C49.2417041,32.9104191 51.9055216,27.6347988 51.9055216,21.809497 C51.9055216,21.5354817 51.8826281,21.2647678 51.8711814,20.9924031 C54.14581,22.7982632 54.6641834,26.1904409 54.6641834,26.1904409 C54.6641834,26.1904409 55.2070854,23.7259536 54.6641834,21.809497" id="Fill-4" fill="#2D7BFA" mask="url(#mask-4)"></path>
                                </g>
                            </g>
                        </g>
                    </g>
                </g>
            </g>
        </g>
    </g>
</svg>