<?xml version="1.0" encoding="UTF-8"?>
<svg width="127px" height="111px" viewBox="0 0 127 111" version="1.1" xmlns="http://www.w3.org/2000/svg" xmlns:xlink="http://www.w3.org/1999/xlink">
    <!-- Generator: Sketch 63.1 (92452) - https://sketch.com -->
    <title>编组 3</title>
    <desc>Created with Sketch.</desc>
    <defs>
        <polygon id="path-1" points="0 0.23422608 59.9142614 0.23422608 59.9142614 60.1479173 0 60.1479173"></polygon>
    </defs>
    <g id="页面-1" stroke="none" stroke-width="1" fill="none" fill-rule="evenodd">
        <g id="首页-移动端" transform="translate(-86.000000, -3315.000000)">
            <g id="供应链数字化转型，不只是技术的升级" transform="translate(0.000000, 3159.000000)">
                <g id="编组-6" transform="translate(86.000000, 148.000000)">
                    <g id="编组-3">
                        <path d="M65.12,1.01613647 L116.47137,30.6638635 C117.560461,31.292651 118.23137,32.4546981 118.23137,33.7122729 L118.23137,93.0077271 C118.23137,94.2653019 117.560461,95.427349 116.47137,96.0561365 L65.12,125.703864 C64.0309082,126.332651 62.6890918,126.332651 61.6,125.703864 L10.2486304,96.0561365 C9.15953863,95.427349 8.48863042,94.2653019 8.48863042,93.0077271 L8.48863042,33.7122729 C8.48863042,32.4546981 9.15953863,31.292651 10.2486304,30.6638635 L61.6,1.01613647 C62.6890918,0.387349036 64.0309082,0.387349036 65.12,1.01613647 Z" id="多边形" fill="#2D7BFA" opacity="0.101306734" transform="translate(63.360000, 63.360000) rotate(90.000000) translate(-63.360000, -63.360000) "></path>
                        <g id="1" transform="translate(31.680000, 32.780000)">
                            <g id="编组" transform="translate(0.000000, 0.092087)">
                                <mask id="mask-2" fill="white">
                                    <use xlink:href="#path-1"></use>
                                </mask>
                                <g id="Clip-2"></g>
                                <path d="M29.9966198,46.9825013 C20.7886694,46.9825013 13.3228022,39.5180597 13.3228022,30.3086837 C13.3228022,21.1007333 20.7886694,13.6348661 29.9966198,13.6348661 C39.2045702,13.6348661 46.6704374,21.1007333 46.6704374,30.3086837 C46.6704374,32.4328277 46.2570134,34.4586053 45.5328086,36.3261413 L49.4560598,40.2508181 C50.4311702,38.3419397 51.1425446,36.2762453 51.5246054,34.0922261 L59.9142614,34.0922261 L59.9142614,26.3683253 L51.5003702,26.3683253 C50.9244278,23.2106213 49.6770278,20.2924181 47.9035814,17.7634037 L53.899655,11.7673301 L48.4367558,6.30443088 L42.4250006,12.3161861 C39.9031142,10.5698261 36.9977414,9.35378928 33.8585702,8.79352848 L33.8585702,0.23422608 L26.1346694,0.23422608 L26.1346694,8.79352848 C23.0040518,9.35236368 20.1043814,10.5641237 17.5867718,12.3019301 L11.5336742,6.24883248 L6.07077504,11.7117317 L12.1053398,17.7448709 C10.3375958,20.2567781 9.08734464,23.1535973 8.50569984,26.2884917 L-0.00085536,26.2884917 L-0.00085536,34.0138181 L8.45722944,34.0138181 C8.99895744,37.1843525 10.2064406,40.1253653 11.9556518,42.6743381 L6.01517664,48.6148133 L11.4780758,54.0777125 L17.3871878,48.1671749 C19.9304582,49.9662821 22.8700454,51.2322149 26.0548358,51.8124341 L26.0548358,60.1479173 L33.7801622,60.1479173 L33.7801622,51.8366693 C35.9755862,51.4531829 38.0526854,50.7375317 39.9701174,49.7538677 L36.0482918,45.8320421 C34.1707766,46.5662261 32.1350198,46.9825013 29.9966198,46.9825013" id="Fill-1" fill="#2D7BFA" mask="url(#mask-2)"></path>
                            </g>
                            <path d="M58.4180942,60.7703272 C57.3303614,60.7703272 56.447915,59.8878808 56.447915,58.800148 C56.447915,57.7109896 57.3303614,56.8285432 58.4180942,56.8285432 C59.5072526,56.8285432 60.3882734,57.7109896 60.3882734,58.800148 C60.3882734,59.8878808 59.5072526,60.7703272 58.4180942,60.7703272 M61.3049342,56.2240888 L40.153307,35.0724616 C40.6864814,33.8264872 40.9815806,32.45506 40.9815806,31.0137784 C40.9815806,25.298548 36.3483806,20.665348 30.6331502,20.665348 C29.753555,20.665348 28.905323,20.786524 28.0898798,20.993236 L33.545651,26.4475816 L31.3758878,31.8591592 L26.0669534,33.9262792 L20.6111822,28.4719336 C20.4044702,29.2873768 20.2832942,30.1356088 20.2832942,31.0137784 C20.2832942,36.7304344 24.9164942,41.3636344 30.6331502,41.3636344 C32.0744318,41.3636344 33.4444334,41.0671096 34.6904078,40.5353608 L55.842035,61.686988 C57.3503198,63.1952728 59.7966494,63.1952728 61.3049342,61.686988 C62.813219,60.1787032 62.813219,57.7323736 61.3049342,56.2240888" id="Fill-3" fill="#2D7BFA"></path>
                        </g>
                    </g>
                </g>
            </g>
        </g>
    </g>
</svg>