<?xml version="1.0" encoding="UTF-8"?>
<svg width="58px" height="51px" viewBox="0 0 58 51" version="1.1" xmlns="http://www.w3.org/2000/svg" xmlns:xlink="http://www.w3.org/1999/xlink">
    <!-- Generator: Sketch 63.1 (92452) - https://sketch.com -->
    <title>上云上平台</title>
    <desc>Created with Sketch.</desc>
    <g id="页面-1" stroke="none" stroke-width="1" fill="none" fill-rule="evenodd">
        <g id="首页-移动端" transform="translate(-434.000000, -735.000000)" fill="#2D7BFA" fill-rule="nonzero">
            <g id="编组-9" transform="translate(-271.000000, 530.000000)">
                <g id="上云上平台" transform="translate(705.000000, 205.000000)">
                    <path d="M47.3040377,28.0344827 L34.8786474,15.6206897 C34.8786474,15.6206897 34.4644677,15.4137931 34.050288,15.6206897 L29.9084912,19.7586207 C28.873042,20.7931034 27.2163233,21.4137931 25.9737843,21.4137931 C24.7312452,21.6206897 22.8674367,21.8275862 21.0036281,19.7586207 C20.7965383,19.5517241 20.7965383,19.3448276 20.7965383,19.137931 C20.7965383,18.9310344 20.7965383,18.7241379 21.0036281,18.5172414 L29.4943116,10.2413793 C28.873042,9.62068964 28.2517725,9 28.0446827,9 C25.9737843,7.34482753 23.6957961,6.10344823 21.8319875,5.06896549 L21.4178078,4.86206893 C21.210718,4.65517237 20.7965383,4.44827581 20.5894485,4.44827586 L20.1752688,4.2413793 C18.9327298,3.82758618 17.4831009,3 16.2405619,3 C15.2051127,3 14.3767533,3.41379312 13.548394,4.2413793 L1.95136297,15.8275862 C-0.119535447,17.8965518 -0.119535447,19.7586207 0.0875544005,20.7931034 L0.0875544005,21.2068965 C0.0875544005,22.0344827 0.915913732,23.2758621 2.36554261,24.724138 L3.19390199,25.5517241 C4.02226133,26.5862069 4.64353087,27.4137931 5.0577105,28.4482759 L5.26480035,28.862069 C6.30024953,30.5172414 7.33569877,32.1724138 9.61368697,34.4482759 L24.1099757,49.1379311 C25.1454249,50.1724138 26.3879639,50.7931035 27.8375928,51 L28.4588623,51 C29.4943115,51 30.5297607,50.5862069 31.1510302,49.9655173 L31.5652099,49.5517241 C32.8077489,48.3103448 31.1510302,46.4482758 31.1510302,46.4482759 L25.1454249,40.4482759 C24.9383351,40.4482759 24.7312452,40.2413793 24.7312452,40.0344828 C24.7312452,39.8275862 24.7312452,39.6206897 24.9383351,39.4137931 C25.1454249,39.2068965 25.3525148,39.2068965 25.5596046,39.2068966 C25.7666944,39.2068966 25.9737843,39.2068966 26.1808741,39.4137931 L32.1864795,45.4137931 C32.1864795,45.4137931 34.2573779,47.2758621 36.1211864,46.2413793 L37.1566356,45.2068965 C38.6062644,43.7586207 36.9495457,41.6896551 36.9495457,41.6896552 L30.5297607,35.2758621 C30.3226709,35.0689655 30.3226709,34.8620689 30.3226709,34.6551724 C30.3226709,34.4482759 30.3226709,34.2413793 30.5297607,34.0344828 C30.7368506,33.8275862 30.9439404,33.8275862 31.1510302,33.8275862 C31.3581201,33.8275862 31.5652099,33.8275862 31.7722998,34.0344828 L38.6062644,40.862069 C38.6062644,40.862069 40.2629832,42.5172414 41.712612,41.8965518 L42.1267917,41.4827586 L43.3693307,40.2413793 C43.3693307,40.2413793 43.3693307,40.0344828 43.5764206,40.0344828 C44.8189596,38.3793103 43.3693307,36.5172414 43.3693307,36.5172414 L36.3282762,29.4827586 C36.1211864,29.275862 36.1211864,29.0689655 36.1211864,28.862069 C36.1211864,28.6551724 36.1211864,28.4482759 36.3282762,28.2413793 C36.5353661,28.0344827 36.7424559,28.0344827 36.9495457,28.0344827 C37.1566356,28.0344827 37.3637254,28.0344827 37.5708153,28.2413793 L43.1622409,33.8275862 C43.1622409,33.8275862 45.4402291,35.8965517 47.7182174,34.4482759 C48.3394869,33.8275862 48.7536665,33.4137931 48.9607564,32.3793103 C49.1678462,30.9310345 48.5465767,29.275862 47.3040377,28.0344827 L47.3040377,28.0344827 Z" id="路径"></path>
                    <path d="M55.3037458,15.9697227 L41.7765855,2.52578586 C38.6549332,-0.57666112 35.3251706,-0.783490926 32.8278487,1.69846669 L27.6250948,7.07604142 L18.4682479,16.1765525 C17.8439174,16.797042 17.8439174,18.0380207 18.4682479,18.6585101 C20.7574596,20.7268081 23.4628917,21.3472975 23.4628917,21.3472975 C22.6304511,21.1404677 22.0061206,20.726808 21.1736799,19.8994889 C20.9655697,19.6926591 20.9655697,19.4858293 20.9655697,19.2789995 C20.9655697,19.0721697 20.9655697,18.8653398 21.1736799,18.6585101 L22.630451,17.2107015 L30.3305269,9.55799898 L35.5332808,4.38725405 C36.1576113,3.76676464 36.5738316,3.76676464 36.9900519,3.76676464 C37.4062722,3.76676464 38.2387128,4.18042425 39.2792637,5.21457322 L52.8064239,18.6585101 C54.0550849,19.8994889 55.3037458,21.7609571 53.6388645,23.2087657 L50.9334325,25.897553 C50.309102,26.5180424 50.309102,27.7590212 50.9334325,28.3795106 C51.3496528,28.7931702 51.7658731,29 52.1820934,29 C52.5983138,29 53.014534,28.7931702 53.4307544,28.3795106 L56.1361864,25.6907232 C58.8416184,23.0019359 58.6335083,19.2789995 55.3037458,15.9697227 L55.3037458,15.9697227 Z" id="路径"></path>
                </g>
            </g>
        </g>
    </g>
</svg>