<?xml version="1.0" encoding="UTF-8"?>
<svg width="154px" height="51px" viewBox="0 0 154 51" version="1.1" xmlns="http://www.w3.org/2000/svg" xmlns:xlink="http://www.w3.org/1999/xlink">
    <!-- Generator: Sketch 63.1 (92452) - https://sketch.com -->
    <title>编组</title>
    <desc>Created with Sketch.</desc>
    <defs>
        <polygon id="path-1" points="0.61285 0.50967 20.13585 0.50967 20.13585 11.2 0.61285 11.2"></polygon>
        <polygon id="path-3" points="0 49.7 153.7585 49.7 153.7585 0.3017 0 0.3017"></polygon>
    </defs>
    <g id="页面-1" stroke="none" stroke-width="1" fill="none" fill-rule="evenodd">
        <g id="首页-移动端" transform="translate(-23.000000, -160.000000)">
            <g id="banner" transform="translate(-44.000000, 136.000000)">
                <g id="编组" transform="translate(67.000000, 24.000000)">
                    <path d="M37.954,33.69114 L48.5933,33.69114 L48.5933,32.44794 L37.954,32.44794 L37.954,33.69114 Z M37.954,36.59054 L48.5933,36.59054 L48.5933,35.30184 L37.954,35.30184 L37.954,36.59054 Z M35.1155,38.22224 L51.4332,38.22224 L51.4332,30.77074 L35.1155,30.77074 L35.1155,38.22224 Z" id="Fill-1" fill="#FEFEFE"></path>
                    <g transform="translate(0.000000, 0.398440)">
                        <g transform="translate(32.900000, 38.500000)">
                            <mask id="mask-2" fill="white">
                                <use xlink:href="#path-1"></use>
                            </mask>
                            <g id="Clip-3"></g>
                            <path d="M20.13585,8.23977 C17.42965,7.86597 15.25825,7.17227 13.63565,6.14817 L20.13585,6.14817 L20.13585,4.05307 L11.49365,4.05307 C11.55945,3.62467 11.60915,3.12697 11.64205,2.56347 L20.13585,2.56347 L20.13585,2.49487 L20.13585,0.50967 L0.61285,0.50967 L0.61285,2.49487 L0.61285,2.56347 L8.04755,2.56347 C8.01465,3.14097 7.93205,3.63797 7.80045,4.05307 L0.61285,4.05307 L0.61285,6.14817 L6.37315,6.14817 C5.21185,7.05677 3.28685,7.74067 0.61285,8.20407 L0.61285,11.20007 C5.36375,10.37757 8.52005,8.81447 10.04115,6.49047 C12.15585,8.99647 15.53125,10.54347 20.13585,11.15807 L20.13585,8.23977 Z" id="Fill-2" fill="#FEFEFE" mask="url(#mask-2)"></path>
                        </g>
                        <polygon id="Fill-4" fill="#FEFEFE" points="62.66253 39.39796 63.82103 39.39796 63.82103 44.60246 66.34103 44.72076 66.34103 36.79606 62.66253 36.79606"></polygon>
                        <mask id="mask-4" fill="white">
                            <use xlink:href="#path-3"></use>
                        </mask>
                        <g id="Clip-7"></g>
                        <polygon id="Fill-6" fill="#FEFEFE" mask="url(#mask-4)" points="63.8204 49.6573 66.3411 49.6573 66.3411 41.7319 63.8204 41.7319"></polygon>
                        <polygon id="Fill-8" fill="#FEFEFE" mask="url(#mask-4)" points="63.8204 35.4235 66.3411 35.4235 66.3411 30.3723 63.8204 30.3723"></polygon>
                        <polygon id="Fill-9" fill="#FEFEFE" mask="url(#mask-4)" points="64.2089 49.658 75.8338 49.658 75.8338 47.1373 64.2089 47.1373"></polygon>
                        <path d="M75.83401,34.07243 L75.83401,31.71483 L71.31131,31.71483 C71.43801,31.27733 71.56121,30.82513 71.68441,30.37293 L69.21831,30.37293 L68.89281,31.71483 L67.13371,31.71483 L67.13371,34.07243 L68.28311,34.07243 C67.86241,35.63063 67.48021,36.89763 67.13371,37.87343 L67.13371,40.04833 L70.71141,40.04833 L70.71141,41.87743 L67.13371,41.87743 L67.13371,44.23573 L70.71141,44.23573 L70.71141,46.43093 L73.06901,46.43093 L73.06901,44.23573 L75.83401,44.23573 L75.83401,41.87743 L73.06901,41.87743 L73.06901,40.04833 L75.83401,40.04833 L75.83401,37.69073 L73.06901,37.69073 L73.06901,35.00763 L70.71141,35.00763 L70.71141,37.69073 L69.57321,37.69073 L70.65051,34.07243 L75.83401,34.07243 Z" id="Fill-10" fill="#FEFEFE" mask="url(#mask-4)"></path>
                        <path d="M62.66253,34.39779 L62.66253,32.12069 L60.17263,32.12069 C60.35043,31.55649 60.51843,30.96919 60.68083,30.37279 L58.16853,30.37279 C57.67083,32.50149 57.04643,34.29769 56.12873,36.03719 L56.12873,40.01529 C56.12873,40.01529 56.72723,39.43709 57.25993,38.65379 C57.36213,38.48649 57.47063,38.33109 57.57003,38.15819 L58.21053,38.15819 L58.21053,40.21129 L56.12873,40.21129 L56.12873,42.50799 L58.21053,42.50799 L58.21053,49.65779 L60.62973,49.65779 L60.62973,42.50799 L62.66253,42.50799 L62.66253,40.21129 L60.62973,40.21129 L60.62973,38.15819 L62.11303,38.15819 L62.11303,35.86079 L58.74953,35.86079 C58.96583,35.38689 59.17233,34.89899 59.36973,34.39779 L62.66253,34.39779 Z" id="Fill-11" fill="#FEFEFE" mask="url(#mask-4)"></path>
                        <polygon id="Fill-12" fill="#FEFEFE" mask="url(#mask-4)" points="93.19422 34.61857 91.40852 36.40427 88.14442 33.13947 89.93012 31.35447"></polygon>
                        <polygon id="Fill-13" fill="#FEFEFE" mask="url(#mask-4)" points="92.71675 40.033 90.93105 41.8187 87.66695 38.5539 89.45265 36.7689"></polygon>
                        <polygon id="Fill-14" fill="#FEFEFE" mask="url(#mask-4)" points="87.6666 45.2977 98.539 45.2977 98.539 42.7728 87.6666 42.7728"></polygon>
                        <polygon id="Fill-15" fill="#FEFEFE" mask="url(#mask-4)" points="93.70998 30.3926 93.70998 49.637 96.12218 49.637 96.12288 30.3926"></polygon>
                        <path d="M84.71666,32.27287 L82.34436,32.27287 L82.34436,36.16837 L78.79676,36.16837 L78.79676,38.45737 L82.01466,38.45737 C81.27266,40.45937 80.11766,42.66577 78.96196,43.98597 C79.33366,44.60477 79.86986,45.61487 80.09666,46.31627 C80.09666,46.31627 81.12706,45.07027 82.34436,42.90657 L82.34436,49.65807 L84.71666,49.65807 L84.71666,41.85167 L85.95496,43.55267 L87.39836,41.61367 C87.33046,41.53107 87.21286,41.39387 87.07846,41.23777 L84.71666,38.45737 L87.43966,38.45737 L87.43966,36.16837 L84.71666,36.16837 L84.71666,32.27287 Z" id="Fill-16" fill="#FEFEFE" mask="url(#mask-4)"></path>
                        <polygon id="Fill-17" fill="#FEFEFE" mask="url(#mask-4)" points="87.11675 30.3926 78.79725 32.3505 78.79725 34.9391 87.11675 32.9812"></polygon>
                        <path d="M107.62696,39.16857 L105.69146,39.64317 L105.69146,36.58767 L107.75296,36.58767 L107.75296,34.31617 L105.69146,34.31617 L105.69146,30.39267 L103.20926,30.39267 L103.20926,34.31617 L100.79076,34.31617 L100.79076,36.58767 L103.20926,36.58767 L103.20926,40.24307 C102.30556,40.46427 101.49986,40.64627 100.77886,40.78697 L100.77886,43.27547 L103.20926,42.67907 L103.20926,47.12967 L101.41026,47.12967 L101.41026,49.65807 L105.69146,49.65807 L105.69146,42.01827 C106.44956,41.83277 107.20626,41.62627 107.94266,41.41977 L107.62696,39.16857 Z" id="Fill-18" fill="#FEFEFE" mask="url(#mask-4)"></path>
                        <path d="M116.94018,40.28353 C116.30948,41.68773 115.53318,42.90643 114.43908,43.93893 C113.38768,42.88543 112.54628,41.64713 111.95688,40.28353 L116.94018,40.28353 Z M120.24628,35.59703 L120.24628,33.32483 L115.68088,33.32483 L115.68088,30.37293 L113.19868,30.37293 L113.19868,33.32483 L108.67528,33.32483 L108.67528,35.59703 L113.19868,35.59703 L113.19868,38.07433 L108.61368,38.07433 C108.61368,38.07433 109.00918,41.54073 112.50358,45.38373 C111.39828,46.08163 109.95628,46.65073 108.62558,47.06303 L108.62558,49.65793 C110.66258,49.05873 112.71708,48.21033 114.35508,47.09733 C116.83518,48.93413 120.24628,49.65793 120.24628,49.65793 L120.24628,47.05883 C118.77278,46.61783 117.46098,46.27203 116.33188,45.48663 C119.95438,41.49103 120.24628,38.07433 120.24628,38.07433 L115.68088,38.07433 L115.68088,35.59703 L120.24628,35.59703 Z" id="Fill-19" fill="#FEFEFE" mask="url(#mask-4)"></path>
                        <polygon id="Fill-20" fill="#FEFEFE" mask="url(#mask-4)" points="-0.00014 1.36038 6.18506 0.30198 6.18506 9.77648 16.65566 9.77648 16.65566 1.36038 22.84086 0.30198 22.84086 24.65008 16.65566 24.65008 16.65566 15.07758 6.18506 15.07758 6.18506 24.65008 -0.00014 24.65008"></polygon>
                        <polygon id="Fill-21" fill="#FEFEFE" mask="url(#mask-4)" points="70.32697 1.36038 76.16847 0.30198 76.16847 24.65008 70.32697 24.65008"></polygon>
                        <polygon id="Fill-22" fill="#FEFEFE" mask="url(#mask-4)" points="79.54422 9.35984 85.38502 8.30144 85.38502 24.64994 79.54422 24.64994"></polygon>
                        <path d="M88.77106,1.92164 C92.69806,0.79324 96.08536,0.30184 99.62036,0.30184 C103.39966,0.30184 106.00156,1.08724 107.57236,2.75604 C108.94646,4.22954 109.48686,6.04534 109.48686,9.28494 L109.48686,24.64994 L103.64536,24.64994 L103.64536,9.67834 C103.64536,6.29104 102.36856,5.01424 98.88326,5.01424 C97.45946,5.01424 96.18336,5.21094 94.61256,5.70164 L94.61256,24.64994 L88.77106,24.64994 L88.77106,1.92164 Z" id="Fill-23" fill="#FEFEFE" mask="url(#mask-4)"></path>
                        <path d="M138.05099,18.06161 C140.48629,19.54211 142.25309,20.06711 144.44829,20.06711 C146.83599,20.06711 148.26819,19.15991 148.26819,17.77531 C148.26819,16.72531 147.55139,15.91331 145.92879,15.19721 L143.63699,14.09891 C139.67429,12.23691 138.05099,10.23211 138.05099,7.22421 C138.05099,3.02281 141.53629,0.30191 146.93119,0.30191 C149.12709,0.30191 150.79799,0.63581 152.94699,1.59131 L152.94699,6.46051 C150.84559,5.12351 149.36579,4.59851 147.31339,4.59851 C144.97399,4.59851 143.54179,5.45741 143.54179,6.84271 C143.54179,7.98791 143.97089,8.37011 147.55139,10.13691 C150.22539,11.47321 151.27539,12.14171 152.23089,13.24001 C153.18569,14.33761 153.75829,15.86571 153.75829,17.48831 C153.75829,21.92911 150.27369,24.65001 144.59249,24.65001 C142.20479,24.65001 140.24759,24.22021 138.05099,23.21781 L138.05099,18.06161 Z" id="Fill-24" fill="#FEFEFE" mask="url(#mask-4)"></path>
                        <path d="M85.69554,3.53283 C85.69554,5.31713 84.24934,6.76403 82.46434,6.76403 C80.68004,6.76403 79.23384,5.31713 79.23384,3.53283 C79.23384,1.74853 80.68004,0.30163 82.46434,0.30163 C84.24934,0.30163 85.69554,1.74853 85.69554,3.53283" id="Fill-25" fill="#FEFEFE" mask="url(#mask-4)"></path>
                        <polygon id="Fill-26" fill="#FEFEFE" mask="url(#mask-4)" points="125.05857 11.69938 135.44447 0.30198 128.71957 0.30198 118.71377 10.90488 118.71377 10.90558 118.71377 0.30198 112.87227 1.36038 112.87227 24.65008 118.71377 24.65008 118.71377 12.13198 128.92397 24.65008 136.43497 24.65008"></polygon>
                        <path d="M58.0076,0.30184 L49.0504,0.30184 L52.1311,5.63724 L54.9269,5.63724 C56.0616,5.63724 57.1095,6.24274 57.6772,7.22484 L59.7401,10.79834 C60.3071,11.78044 60.3071,12.99074 59.7401,13.97354 L57.6772,17.54634 C57.1095,18.52914 56.0616,19.13464 54.9269,19.13464 L50.8011,19.13464 C49.6664,19.13464 48.6185,18.52914 48.0515,17.54704 L41.9902,7.05264 L38.9109,12.38594 L44.9708,22.88244 C45.5378,23.86454 46.5864,24.47004 47.7211,24.47004 L58.0076,24.47004 C59.1423,24.47004 60.1902,23.86454 60.7572,22.88244 L65.9008,13.97354 C66.4678,12.99074 66.4678,11.78044 65.9008,10.79834 L60.7572,1.88944 C60.1902,0.90734 59.1423,0.30184 58.0076,0.30184" id="Fill-27" fill="#DA2E30" mask="url(#mask-4)"></path>
                        <path d="M44.87098,0.30184 L34.58448,0.30184 C33.44978,0.30184 32.40118,0.90734 31.83418,1.88944 L26.69058,10.79834 C26.12358,11.78044 26.12358,12.99074 26.69058,13.97354 L31.83418,22.88244 C32.40118,23.86454 33.44978,24.47004 34.58448,24.47004 L43.57388,24.47004 L40.49248,19.13464 L37.66448,19.13464 C36.53048,19.13464 35.48188,18.52914 34.91488,17.54634 L32.85198,13.97354 C32.28428,12.99074 32.28428,11.78044 32.85198,10.79834 L34.91488,7.22484 C35.48188,6.24274 36.53048,5.63724 37.66448,5.63724 L41.79098,5.63724 C42.92498,5.63724 43.97288,6.24274 44.54058,7.22484 L50.60118,17.72064 L53.68118,12.38594 L47.62058,1.88944 C47.05358,0.90734 46.00568,0.30184 44.87098,0.30184" id="Fill-28" fill="#DA2E30" mask="url(#mask-4)"></path>
                    </g>
                </g>
            </g>
        </g>
    </g>
</svg>